G04*
G04 #@! TF.GenerationSoftware,Altium Limited,Altium Designer,25.8.1 (18)*
G04*
G04 Layer_Physical_Order=2*
G04 Layer_Color=36540*
%FSLAX44Y44*%
%MOMM*%
G71*
G04*
G04 #@! TF.SameCoordinates,DB09AE0A-4665-414F-B681-9E8EFED715B2*
G04*
G04*
G04 #@! TF.FilePolarity,Positive*
G04*
G01*
G75*
%ADD107C,3.0000*%
%ADD108C,1.0000*%
%ADD109C,0.5000*%
G36*
X199475Y647550D02*
X201318Y646318D01*
X202550Y644474D01*
X202957Y642429D01*
X202940Y642300D01*
Y493700D01*
X202957Y493571D01*
X202550Y491525D01*
X201318Y489682D01*
X199475Y488450D01*
X197429Y488043D01*
X197300Y488060D01*
X2549D01*
Y647940D01*
X197300D01*
X197429Y647957D01*
X199475Y647550D01*
D02*
G37*
G36*
X825451Y727549D02*
X728000D01*
X727025Y727355D01*
X726198Y726802D01*
X725645Y725975D01*
X725451Y725000D01*
Y450000D01*
X725645Y449025D01*
X726198Y448198D01*
X727025Y447645D01*
X728000Y447451D01*
X825451D01*
Y392549D01*
X578000D01*
X577025Y392355D01*
X576198Y391802D01*
X575645Y390975D01*
X575451Y390000D01*
Y40000D01*
X575645Y39025D01*
X576198Y38198D01*
X577025Y37645D01*
X578000Y37451D01*
X825451D01*
Y2549D01*
X2549D01*
Y473940D01*
X197300D01*
Y473905D01*
X201162Y474285D01*
X204875Y475411D01*
X208298Y477241D01*
X211297Y479703D01*
X213759Y482702D01*
X215588Y486125D01*
X216715Y489838D01*
X217095Y493700D01*
X217060D01*
Y642300D01*
X217095D01*
X216715Y646162D01*
X215588Y649875D01*
X213759Y653298D01*
X211297Y656297D01*
X208298Y658759D01*
X204875Y660589D01*
X201162Y661715D01*
X197300Y662095D01*
Y662060D01*
X2549D01*
Y747451D01*
X825451D01*
Y727549D01*
D02*
G37*
%LPC*%
G36*
X65294Y603150D02*
X63206D01*
X61276Y602351D01*
X59799Y600874D01*
X59000Y598944D01*
Y596856D01*
X59799Y594926D01*
X61276Y593449D01*
X63206Y592650D01*
X65294D01*
X67224Y593449D01*
X68701Y594926D01*
X69500Y596856D01*
Y598944D01*
X68701Y600874D01*
X67224Y602351D01*
X65294Y603150D01*
D02*
G37*
G36*
X105696Y599500D02*
X104304D01*
X103017Y598967D01*
X102033Y597983D01*
X101500Y596696D01*
Y595304D01*
X102033Y594017D01*
X103017Y593033D01*
X104304Y592500D01*
X105696D01*
X106983Y593033D01*
X107967Y594017D01*
X108500Y595304D01*
Y596696D01*
X107967Y597983D01*
X106983Y598967D01*
X105696Y599500D01*
D02*
G37*
G36*
X114696Y595500D02*
X113304D01*
X112017Y594967D01*
X111033Y593983D01*
X110500Y592696D01*
Y591304D01*
X111033Y590017D01*
X112017Y589033D01*
X113304Y588500D01*
X114696D01*
X115983Y589033D01*
X116967Y590017D01*
X117500Y591304D01*
Y592696D01*
X116967Y593983D01*
X115983Y594967D01*
X114696Y595500D01*
D02*
G37*
G36*
X144696Y591500D02*
X143304D01*
X142017Y590967D01*
X141033Y589983D01*
X140500Y588696D01*
Y587304D01*
X141033Y586017D01*
X142017Y585033D01*
X143304Y584500D01*
X144696D01*
X145983Y585033D01*
X146967Y586017D01*
X147500Y587304D01*
Y588696D01*
X146967Y589983D01*
X145983Y590967D01*
X144696Y591500D01*
D02*
G37*
G36*
X107696Y589500D02*
X106304D01*
X105017Y588967D01*
X104033Y587983D01*
X103500Y586696D01*
Y585304D01*
X104033Y584017D01*
X105017Y583033D01*
X106304Y582500D01*
X107696D01*
X108983Y583033D01*
X109967Y584017D01*
X110500Y585304D01*
Y586696D01*
X109967Y587983D01*
X108983Y588967D01*
X107696Y589500D01*
D02*
G37*
G36*
X103696Y581500D02*
X102304D01*
X101017Y580967D01*
X100033Y579983D01*
X99500Y578696D01*
Y577304D01*
X100033Y576017D01*
X101017Y575033D01*
X102304Y574500D01*
X103696D01*
X104983Y575033D01*
X105967Y576017D01*
X106500Y577304D01*
Y578696D01*
X105967Y579983D01*
X104983Y580967D01*
X103696Y581500D01*
D02*
G37*
G36*
X161696Y572500D02*
X160304D01*
X159017Y571967D01*
X158033Y570983D01*
X157500Y569696D01*
Y568304D01*
X158033Y567017D01*
X159017Y566033D01*
X160304Y565500D01*
X161696D01*
X162983Y566033D01*
X163967Y567017D01*
X164500Y568304D01*
Y569696D01*
X163967Y570983D01*
X162983Y571967D01*
X161696Y572500D01*
D02*
G37*
G36*
X173696Y567500D02*
X172304D01*
X171017Y566967D01*
X170033Y565983D01*
X169500Y564696D01*
Y563304D01*
X170033Y562017D01*
X171017Y561033D01*
X172304Y560500D01*
X173696D01*
X174983Y561033D01*
X175967Y562017D01*
X176500Y563304D01*
Y564696D01*
X175967Y565983D01*
X174983Y566967D01*
X173696Y567500D01*
D02*
G37*
G36*
X107676Y547500D02*
X106283D01*
X104997Y546967D01*
X104012Y545983D01*
X103479Y544696D01*
Y543304D01*
X104012Y542017D01*
X104997Y541033D01*
X106283Y540500D01*
X107676D01*
X108962Y541033D01*
X109946Y542017D01*
X110479Y543304D01*
Y544696D01*
X109946Y545983D01*
X108962Y546967D01*
X107676Y547500D01*
D02*
G37*
G36*
X65294Y545350D02*
X63206D01*
X61276Y544551D01*
X59799Y543074D01*
X59000Y541144D01*
Y539056D01*
X59799Y537126D01*
X61276Y535649D01*
X63206Y534850D01*
X65294D01*
X67224Y535649D01*
X68701Y537126D01*
X69500Y539056D01*
Y541144D01*
X68701Y543074D01*
X67224Y544551D01*
X65294Y545350D01*
D02*
G37*
G36*
X335696Y651500D02*
X334304D01*
X333017Y650967D01*
X332033Y649983D01*
X331500Y648696D01*
Y647304D01*
X332033Y646017D01*
X333017Y645033D01*
X334304Y644500D01*
X335696D01*
X336983Y645033D01*
X337967Y646017D01*
X338500Y647304D01*
Y648696D01*
X337967Y649983D01*
X336983Y650967D01*
X335696Y651500D01*
D02*
G37*
G36*
X301696Y642500D02*
X300304D01*
X299017Y641967D01*
X298033Y640983D01*
X297500Y639696D01*
Y638304D01*
X298033Y637017D01*
X299017Y636033D01*
X300304Y635500D01*
X301696D01*
X302983Y636033D01*
X303967Y637017D01*
X304500Y638304D01*
Y639696D01*
X303967Y640983D01*
X302983Y641967D01*
X301696Y642500D01*
D02*
G37*
G36*
X268696D02*
X267304D01*
X266017Y641967D01*
X265033Y640983D01*
X264500Y639696D01*
Y638304D01*
X265033Y637017D01*
X266017Y636033D01*
X267304Y635500D01*
X268696D01*
X269983Y636033D01*
X270967Y637017D01*
X271500Y638304D01*
Y639696D01*
X270967Y640983D01*
X269983Y641967D01*
X268696Y642500D01*
D02*
G37*
G36*
X445696Y623500D02*
X444304D01*
X443017Y622967D01*
X442033Y621983D01*
X441500Y620696D01*
Y619304D01*
X442033Y618017D01*
X443017Y617033D01*
X444304Y616500D01*
X445696D01*
X446983Y617033D01*
X447967Y618017D01*
X448500Y619304D01*
Y620696D01*
X447967Y621983D01*
X446983Y622967D01*
X445696Y623500D01*
D02*
G37*
G36*
X607696Y621500D02*
X606304D01*
X605017Y620967D01*
X604033Y619983D01*
X603500Y618696D01*
Y617304D01*
X604033Y616017D01*
X605017Y615033D01*
X606304Y614500D01*
X607696D01*
X608983Y615033D01*
X609967Y616017D01*
X610500Y617304D01*
Y618696D01*
X609967Y619983D01*
X608983Y620967D01*
X607696Y621500D01*
D02*
G37*
G36*
X532696Y620500D02*
X531304D01*
X530017Y619967D01*
X529033Y618983D01*
X528500Y617696D01*
Y616304D01*
X529033Y615017D01*
X530017Y614033D01*
X531304Y613500D01*
X532696D01*
X533983Y614033D01*
X534967Y615017D01*
X535500Y616304D01*
Y617696D01*
X534967Y618983D01*
X533983Y619967D01*
X532696Y620500D01*
D02*
G37*
G36*
X561696Y619500D02*
X560304D01*
X559017Y618967D01*
X558033Y617983D01*
X557500Y616696D01*
Y615304D01*
X558033Y614017D01*
X559017Y613033D01*
X560304Y612500D01*
X561696D01*
X562983Y613033D01*
X563967Y614017D01*
X564500Y615304D01*
Y616696D01*
X563967Y617983D01*
X562983Y618967D01*
X561696Y619500D01*
D02*
G37*
G36*
X585696Y599500D02*
X584304D01*
X583017Y598967D01*
X582033Y597983D01*
X581500Y596696D01*
Y595304D01*
X582033Y594017D01*
X583017Y593033D01*
X584304Y592500D01*
X585696D01*
X586983Y593033D01*
X587967Y594017D01*
X588500Y595304D01*
Y596696D01*
X587967Y597983D01*
X586983Y598967D01*
X585696Y599500D01*
D02*
G37*
G36*
X224696Y596500D02*
X223304D01*
X222017Y595967D01*
X221033Y594983D01*
X220500Y593696D01*
Y592304D01*
X221033Y591017D01*
X222017Y590033D01*
X223304Y589500D01*
X224696D01*
X225983Y590033D01*
X226967Y591017D01*
X227500Y592304D01*
Y593696D01*
X226967Y594983D01*
X225983Y595967D01*
X224696Y596500D01*
D02*
G37*
G36*
X596696Y595500D02*
X595304D01*
X594017Y594967D01*
X593033Y593983D01*
X592500Y592696D01*
Y591304D01*
X593033Y590017D01*
X594017Y589033D01*
X595304Y588500D01*
X596696D01*
X597983Y589033D01*
X598967Y590017D01*
X599500Y591304D01*
Y592696D01*
X598967Y593983D01*
X597983Y594967D01*
X596696Y595500D01*
D02*
G37*
G36*
X578271Y591536D02*
X576879D01*
X575592Y591003D01*
X574608Y590019D01*
X574075Y588732D01*
Y587340D01*
X574608Y586054D01*
X575592Y585069D01*
X576879Y584536D01*
X578271D01*
X579557Y585069D01*
X580542Y586054D01*
X581075Y587340D01*
Y588732D01*
X580542Y590019D01*
X579557Y591003D01*
X578271Y591536D01*
D02*
G37*
G36*
X609696Y590500D02*
X608304D01*
X607017Y589967D01*
X606033Y588983D01*
X605500Y587696D01*
Y586304D01*
X606033Y585017D01*
X607017Y584033D01*
X608304Y583500D01*
X609696D01*
X610983Y584033D01*
X611967Y585017D01*
X612500Y586304D01*
Y587696D01*
X611967Y588983D01*
X610983Y589967D01*
X609696Y590500D01*
D02*
G37*
G36*
X457696Y583500D02*
X456304D01*
X455017Y582967D01*
X454033Y581983D01*
X453500Y580696D01*
Y579304D01*
X454033Y578017D01*
X455017Y577033D01*
X456304Y576500D01*
X457696D01*
X458983Y577033D01*
X459967Y578017D01*
X460500Y579304D01*
Y580696D01*
X459967Y581983D01*
X458983Y582967D01*
X457696Y583500D01*
D02*
G37*
G36*
X235696Y572500D02*
X234304D01*
X233017Y571967D01*
X232033Y570983D01*
X231500Y569696D01*
Y568304D01*
X232033Y567017D01*
X233017Y566033D01*
X233551Y565812D01*
Y564188D01*
X233017Y563967D01*
X232033Y562983D01*
X231500Y561696D01*
Y560304D01*
X232033Y559017D01*
X233017Y558033D01*
X234304Y557500D01*
X235696D01*
X236983Y558033D01*
X237967Y559017D01*
X238500Y560304D01*
Y561696D01*
X237967Y562983D01*
X236983Y563967D01*
X236449Y564188D01*
Y565812D01*
X236983Y566033D01*
X237967Y567017D01*
X238500Y568304D01*
Y569696D01*
X237967Y570983D01*
X236983Y571967D01*
X235696Y572500D01*
D02*
G37*
G36*
X580696Y541500D02*
X579304D01*
X578017Y540967D01*
X577033Y539983D01*
X576500Y538696D01*
Y537304D01*
X577033Y536017D01*
X578017Y535033D01*
X579304Y534500D01*
X580696D01*
X581983Y535033D01*
X582967Y536017D01*
X583500Y537304D01*
Y538696D01*
X582967Y539983D01*
X581983Y540967D01*
X580696Y541500D01*
D02*
G37*
G36*
X541696Y540500D02*
X540304D01*
X539017Y539967D01*
X538033Y538983D01*
X537500Y537696D01*
Y536304D01*
X538033Y535017D01*
X539017Y534033D01*
X540304Y533500D01*
X541696D01*
X542983Y534033D01*
X543967Y535017D01*
X544500Y536304D01*
Y537696D01*
X543967Y538983D01*
X542983Y539967D01*
X541696Y540500D01*
D02*
G37*
G36*
X591696Y538500D02*
X590304D01*
X589017Y537967D01*
X588033Y536983D01*
X587500Y535696D01*
Y534304D01*
X588033Y533017D01*
X589017Y532033D01*
X590304Y531500D01*
X591696D01*
X592983Y532033D01*
X593967Y533017D01*
X594500Y534304D01*
Y535696D01*
X593967Y536983D01*
X592983Y537967D01*
X591696Y538500D01*
D02*
G37*
G36*
X691922Y598000D02*
X690078D01*
X688298Y597523D01*
X686702Y596601D01*
X685399Y595298D01*
X684477Y593702D01*
X684000Y591922D01*
Y590078D01*
X684477Y588298D01*
X685399Y586702D01*
X686553Y585547D01*
X686634Y584650D01*
X686553Y583753D01*
X685399Y582598D01*
X684477Y581002D01*
X684000Y579222D01*
Y577378D01*
X684477Y575598D01*
X685399Y574002D01*
X686553Y572848D01*
X686634Y571950D01*
X686553Y571053D01*
X685399Y569898D01*
X684477Y568302D01*
X684000Y566522D01*
Y564678D01*
X684477Y562898D01*
X685399Y561302D01*
X686553Y560148D01*
X686634Y559250D01*
X686553Y558353D01*
X685399Y557198D01*
X684477Y555602D01*
X684000Y553822D01*
Y551978D01*
X684477Y550198D01*
X685399Y548602D01*
X686553Y547448D01*
X686634Y546550D01*
X686553Y545653D01*
X685399Y544498D01*
X684477Y542902D01*
X684000Y541122D01*
Y539278D01*
X684477Y537498D01*
X685399Y535902D01*
X686553Y534748D01*
X686634Y533850D01*
X686587Y533327D01*
X688395Y531519D01*
X686981Y530105D01*
X685358Y531728D01*
X684477Y530202D01*
X684000Y528422D01*
Y526578D01*
X684477Y524798D01*
X685358Y523272D01*
X686981Y524895D01*
X688395Y523481D01*
X686772Y521858D01*
X688298Y520977D01*
X690078Y520500D01*
X691922D01*
X693702Y520977D01*
X695228Y521858D01*
X693605Y523481D01*
X695019Y524895D01*
X696642Y523272D01*
X697523Y524798D01*
X698000Y526578D01*
Y528422D01*
X697523Y530202D01*
X696642Y531728D01*
X695019Y530105D01*
X693605Y531519D01*
X695413Y533327D01*
X695366Y533850D01*
X695447Y534748D01*
X696601Y535902D01*
X697523Y537498D01*
X698000Y539278D01*
Y541122D01*
X697523Y542902D01*
X696601Y544498D01*
X695447Y545653D01*
X695366Y546550D01*
X695447Y547448D01*
X696601Y548602D01*
X697523Y550198D01*
X698000Y551978D01*
Y553822D01*
X697523Y555602D01*
X696601Y557198D01*
X695447Y558353D01*
X695366Y559250D01*
X695447Y560148D01*
X696601Y561302D01*
X697523Y562898D01*
X698000Y564678D01*
Y566522D01*
X697523Y568302D01*
X696601Y569898D01*
X695447Y571053D01*
X695366Y571950D01*
X695447Y572848D01*
X696601Y574002D01*
X697523Y575598D01*
X698000Y577378D01*
Y579222D01*
X697523Y581002D01*
X696601Y582598D01*
X695447Y583753D01*
X695366Y584650D01*
X695447Y585547D01*
X696601Y586702D01*
X697523Y588298D01*
X698000Y590078D01*
Y591922D01*
X697523Y593702D01*
X696601Y595298D01*
X695298Y596601D01*
X693702Y597523D01*
X691922Y598000D01*
D02*
G37*
G36*
X342696Y499500D02*
X341304D01*
X340017Y498967D01*
X339033Y497983D01*
X338500Y496696D01*
Y495304D01*
X339033Y494017D01*
X340017Y493033D01*
X341304Y492500D01*
X342696D01*
X343983Y493033D01*
X344967Y494017D01*
X345500Y495304D01*
Y496696D01*
X344967Y497983D01*
X343983Y498967D01*
X342696Y499500D01*
D02*
G37*
G36*
X460696Y474500D02*
X459304D01*
X458017Y473967D01*
X457033Y472983D01*
X456500Y471696D01*
Y470304D01*
X457033Y469017D01*
X458017Y468033D01*
X459304Y467500D01*
X460696D01*
X461983Y468033D01*
X462967Y469017D01*
X463500Y470304D01*
Y471696D01*
X462967Y472983D01*
X461983Y473967D01*
X460696Y474500D01*
D02*
G37*
G36*
X509696Y465500D02*
X508304D01*
X507017Y464967D01*
X506033Y463983D01*
X505500Y462696D01*
Y461304D01*
X506033Y460017D01*
X507017Y459033D01*
X508304Y458500D01*
X509696D01*
X510983Y459033D01*
X511967Y460017D01*
X512500Y461304D01*
Y462696D01*
X511967Y463983D01*
X510983Y464967D01*
X509696Y465500D01*
D02*
G37*
G36*
X384696D02*
X383304D01*
X382017Y464967D01*
X381033Y463983D01*
X380500Y462696D01*
Y461304D01*
X381033Y460017D01*
X382017Y459033D01*
X383304Y458500D01*
X384696D01*
X385983Y459033D01*
X386967Y460017D01*
X387500Y461304D01*
Y462696D01*
X386967Y463983D01*
X385983Y464967D01*
X384696Y465500D01*
D02*
G37*
G36*
X445696Y463500D02*
X444304D01*
X443017Y462967D01*
X442033Y461983D01*
X441500Y460696D01*
Y459304D01*
X442033Y458017D01*
X443017Y457033D01*
X444304Y456500D01*
X445696D01*
X446983Y457033D01*
X447967Y458017D01*
X448500Y459304D01*
Y460696D01*
X447967Y461983D01*
X446983Y462967D01*
X445696Y463500D01*
D02*
G37*
G36*
X571696Y459500D02*
X570304D01*
X569017Y458967D01*
X568033Y457983D01*
X567500Y456696D01*
Y455304D01*
X568033Y454017D01*
X569017Y453033D01*
X570304Y452500D01*
X571696D01*
X572983Y453033D01*
X573967Y454017D01*
X574500Y455304D01*
Y456696D01*
X573967Y457983D01*
X572983Y458967D01*
X571696Y459500D01*
D02*
G37*
G36*
X426609Y452355D02*
X425217D01*
X423930Y451822D01*
X422946Y450838D01*
X422413Y449551D01*
Y448159D01*
X422946Y446872D01*
X423930Y445888D01*
X425217Y445355D01*
X426609D01*
X427896Y445888D01*
X428880Y446872D01*
X429413Y448159D01*
Y449551D01*
X428880Y450838D01*
X427896Y451822D01*
X426609Y452355D01*
D02*
G37*
G36*
X485696Y450500D02*
X484304D01*
X483017Y449967D01*
X482033Y448983D01*
X481500Y447696D01*
Y446304D01*
X482033Y445017D01*
X483017Y444033D01*
X484304Y443500D01*
X485696D01*
X486983Y444033D01*
X487967Y445017D01*
X488500Y446304D01*
Y447696D01*
X487967Y448983D01*
X486983Y449967D01*
X485696Y450500D01*
D02*
G37*
G36*
X500696Y449500D02*
X499304D01*
X498017Y448967D01*
X497033Y447983D01*
X496500Y446696D01*
Y445304D01*
X497033Y444017D01*
X498017Y443033D01*
X499304Y442500D01*
X500696D01*
X501983Y443033D01*
X502967Y444017D01*
X503500Y445304D01*
Y446696D01*
X502967Y447983D01*
X501983Y448967D01*
X500696Y449500D01*
D02*
G37*
G36*
X216696Y446500D02*
X215304D01*
X214017Y445967D01*
X213033Y444983D01*
X212500Y443696D01*
Y442304D01*
X213033Y441017D01*
X214017Y440033D01*
X215304Y439500D01*
X216696D01*
X217983Y440033D01*
X218967Y441017D01*
X219500Y442304D01*
Y443696D01*
X218967Y444983D01*
X217983Y445967D01*
X216696Y446500D01*
D02*
G37*
G36*
X545696Y440500D02*
X544304D01*
X543017Y439967D01*
X542033Y438983D01*
X541500Y437696D01*
Y436304D01*
X542033Y435017D01*
X543017Y434033D01*
X544304Y433500D01*
X545696D01*
X546983Y434033D01*
X547967Y435017D01*
X548500Y436304D01*
Y437696D01*
X547967Y438983D01*
X546983Y439967D01*
X545696Y440500D01*
D02*
G37*
G36*
X168696Y436500D02*
X167304D01*
X166017Y435967D01*
X165033Y434983D01*
X164500Y433696D01*
Y432304D01*
X165033Y431017D01*
X166017Y430033D01*
X167304Y429500D01*
X168696D01*
X169983Y430033D01*
X170967Y431017D01*
X171500Y432304D01*
Y433696D01*
X170967Y434983D01*
X169983Y435967D01*
X168696Y436500D01*
D02*
G37*
G36*
X569696Y434500D02*
X568304D01*
X567017Y433967D01*
X566033Y432983D01*
X565500Y431696D01*
Y430304D01*
X566033Y429017D01*
X567017Y428033D01*
X568304Y427500D01*
X569696D01*
X570983Y428033D01*
X571967Y429017D01*
X572500Y430304D01*
Y431696D01*
X571967Y432983D01*
X570983Y433967D01*
X569696Y434500D01*
D02*
G37*
G36*
X443696D02*
X442304D01*
X441017Y433967D01*
X440033Y432983D01*
X439500Y431696D01*
Y430304D01*
X440033Y429017D01*
X441017Y428033D01*
X442304Y427500D01*
X443696D01*
X444983Y428033D01*
X445967Y429017D01*
X446500Y430304D01*
Y431696D01*
X445967Y432983D01*
X444983Y433967D01*
X443696Y434500D01*
D02*
G37*
G36*
X486696Y432500D02*
X485304D01*
X484017Y431967D01*
X483033Y430983D01*
X482500Y429696D01*
Y428304D01*
X483033Y427017D01*
X484017Y426033D01*
X485304Y425500D01*
X486696D01*
X487983Y426033D01*
X488967Y427017D01*
X489500Y428304D01*
Y429696D01*
X488967Y430983D01*
X487983Y431967D01*
X486696Y432500D01*
D02*
G37*
G36*
X677422Y428000D02*
X675578D01*
X673798Y427523D01*
X672272Y426642D01*
X673895Y425019D01*
X672481Y423605D01*
X670673Y425413D01*
X670150Y425366D01*
X669627Y425413D01*
X667819Y423605D01*
X666405Y425019D01*
X668028Y426642D01*
X666502Y427523D01*
X664722Y428000D01*
X662878D01*
X661098Y427523D01*
X659572Y426642D01*
X661195Y425019D01*
X659781Y423605D01*
X657973Y425413D01*
X657450Y425366D01*
X656553Y425447D01*
X655398Y426601D01*
X653802Y427523D01*
X652022Y428000D01*
X650178D01*
X648398Y427523D01*
X646802Y426601D01*
X645648Y425447D01*
X644750Y425366D01*
X643852Y425447D01*
X642698Y426601D01*
X641102Y427523D01*
X639322Y428000D01*
X637478D01*
X635698Y427523D01*
X634102Y426601D01*
X632948Y425447D01*
X632050Y425366D01*
X631152Y425447D01*
X629998Y426601D01*
X628402Y427523D01*
X626622Y428000D01*
X624778D01*
X622998Y427523D01*
X621402Y426601D01*
X620247Y425447D01*
X619350Y425366D01*
X618452Y425447D01*
X617298Y426601D01*
X615702Y427523D01*
X613922Y428000D01*
X612078D01*
X610298Y427523D01*
X608702Y426601D01*
X607399Y425298D01*
X606477Y423702D01*
X606000Y421922D01*
Y420078D01*
X606477Y418298D01*
X607399Y416702D01*
X608702Y415399D01*
X610298Y414477D01*
X612078Y414000D01*
X613922D01*
X615702Y414477D01*
X617298Y415399D01*
X618452Y416553D01*
X619350Y416634D01*
X620247Y416553D01*
X621402Y415399D01*
X622998Y414477D01*
X624778Y414000D01*
X626622D01*
X628402Y414477D01*
X629998Y415399D01*
X631152Y416553D01*
X632050Y416634D01*
X632948Y416553D01*
X634102Y415399D01*
X635698Y414477D01*
X637478Y414000D01*
X639322D01*
X641102Y414477D01*
X642698Y415399D01*
X643852Y416553D01*
X644750Y416634D01*
X645648Y416553D01*
X646802Y415399D01*
X648398Y414477D01*
X650178Y414000D01*
X652022D01*
X653802Y414477D01*
X655398Y415399D01*
X656553Y416553D01*
X657450Y416634D01*
X657973Y416587D01*
X659781Y418395D01*
X661195Y416981D01*
X659572Y415358D01*
X661098Y414477D01*
X662878Y414000D01*
X664722D01*
X666502Y414477D01*
X668028Y415358D01*
X666405Y416981D01*
X667819Y418395D01*
X669627Y416587D01*
X670150Y416634D01*
X670673Y416587D01*
X672481Y418395D01*
X673895Y416981D01*
X672272Y415358D01*
X673798Y414477D01*
X675578Y414000D01*
X677422D01*
X679202Y414477D01*
X680728Y415358D01*
X679105Y416981D01*
X680519Y418395D01*
X682142Y416772D01*
X683023Y418298D01*
X683500Y420078D01*
Y421922D01*
X683023Y423702D01*
X682142Y425228D01*
X680519Y423605D01*
X679105Y425019D01*
X680728Y426642D01*
X679202Y427523D01*
X677422Y428000D01*
D02*
G37*
G36*
X174909Y427287D02*
X173517D01*
X172230Y426754D01*
X171246Y425769D01*
X170713Y424483D01*
Y423091D01*
X171246Y421804D01*
X172230Y420820D01*
X173517Y420287D01*
X174909D01*
X176196Y420820D01*
X177180Y421804D01*
X177713Y423091D01*
Y424483D01*
X177180Y425769D01*
X176196Y426754D01*
X174909Y427287D01*
D02*
G37*
G36*
X255696Y433500D02*
X254304D01*
X253017Y432967D01*
X252033Y431983D01*
X251500Y430696D01*
Y429304D01*
X252033Y428017D01*
X252623Y427427D01*
X252873Y426500D01*
X252623Y425573D01*
X252033Y424983D01*
X251500Y423696D01*
Y422304D01*
X252033Y421017D01*
X253017Y420033D01*
X254304Y419500D01*
X255696D01*
X256983Y420033D01*
X257967Y421017D01*
X258500Y422304D01*
Y423696D01*
X257967Y424983D01*
X257377Y425573D01*
X257127Y426500D01*
X257377Y427427D01*
X257967Y428017D01*
X258500Y429304D01*
Y430696D01*
X257967Y431983D01*
X256983Y432967D01*
X255696Y433500D01*
D02*
G37*
G36*
X240696Y424500D02*
X239304D01*
X238017Y423967D01*
X237033Y422983D01*
X236500Y421696D01*
Y420304D01*
X237033Y419017D01*
X238017Y418033D01*
X239304Y417500D01*
X240696D01*
X241983Y418033D01*
X242967Y419017D01*
X243500Y420304D01*
Y421696D01*
X242967Y422983D01*
X241983Y423967D01*
X240696Y424500D01*
D02*
G37*
G36*
X233696Y418500D02*
X232304D01*
X231017Y417967D01*
X230033Y416983D01*
X229500Y415696D01*
Y414304D01*
X230033Y413017D01*
X231017Y412033D01*
X232304Y411500D01*
X233696D01*
X234983Y412033D01*
X235967Y413017D01*
X236500Y414304D01*
Y415696D01*
X235967Y416983D01*
X234983Y417967D01*
X233696Y418500D01*
D02*
G37*
G36*
X244000Y399197D02*
X242607D01*
X241321Y398664D01*
X240336Y397679D01*
X239803Y396393D01*
Y395000D01*
X240336Y393714D01*
X241321Y392729D01*
X242607Y392197D01*
X244000D01*
X245286Y392729D01*
X246270Y393714D01*
X246803Y395000D01*
Y396393D01*
X246270Y397679D01*
X245286Y398664D01*
X244000Y399197D01*
D02*
G37*
G36*
X507696Y398500D02*
X506304D01*
X505017Y397967D01*
X504033Y396983D01*
X503500Y395696D01*
Y394304D01*
X504033Y393017D01*
X505017Y392033D01*
X506304Y391500D01*
X507696D01*
X508983Y392033D01*
X509967Y393017D01*
X510500Y394304D01*
Y395696D01*
X509967Y396983D01*
X508983Y397967D01*
X507696Y398500D01*
D02*
G37*
G36*
X443696Y373000D02*
X442304D01*
X441017Y372467D01*
X440033Y371483D01*
X439500Y370196D01*
Y368804D01*
X440033Y367517D01*
X441017Y366533D01*
X442304Y366000D01*
X443696D01*
X444983Y366533D01*
X445967Y367517D01*
X446500Y368804D01*
Y370196D01*
X445967Y371483D01*
X444983Y372467D01*
X443696Y373000D01*
D02*
G37*
G36*
X433696D02*
X432304D01*
X431017Y372467D01*
X430033Y371483D01*
X429500Y370196D01*
Y368804D01*
X430033Y367517D01*
X431017Y366533D01*
X432304Y366000D01*
X433696D01*
X434983Y366533D01*
X435967Y367517D01*
X436500Y368804D01*
Y370196D01*
X435967Y371483D01*
X434983Y372467D01*
X433696Y373000D01*
D02*
G37*
G36*
X405696Y370500D02*
X404304D01*
X403017Y369967D01*
X402033Y368983D01*
X401500Y367696D01*
Y366304D01*
X402033Y365017D01*
X403017Y364033D01*
X404304Y363500D01*
X405696D01*
X406983Y364033D01*
X407967Y365017D01*
X408500Y366304D01*
Y367696D01*
X407967Y368983D01*
X406983Y369967D01*
X405696Y370500D01*
D02*
G37*
G36*
X183582Y358000D02*
X182190D01*
X180903Y357467D01*
X179919Y356483D01*
X179386Y355196D01*
Y353804D01*
X179919Y352517D01*
X180903Y351533D01*
X182190Y351000D01*
X183582D01*
X184869Y351533D01*
X185853Y352517D01*
X186386Y353804D01*
Y355196D01*
X185853Y356483D01*
X184869Y357467D01*
X183582Y358000D01*
D02*
G37*
G36*
X474696Y356500D02*
X473304D01*
X472017Y355967D01*
X471033Y354983D01*
X470500Y353696D01*
Y352304D01*
X471033Y351017D01*
X472017Y350033D01*
X473304Y349500D01*
X474696D01*
X475983Y350033D01*
X476967Y351017D01*
X477500Y352304D01*
Y353696D01*
X476967Y354983D01*
X475983Y355967D01*
X474696Y356500D01*
D02*
G37*
G36*
X165696D02*
X164304D01*
X163017Y355967D01*
X162033Y354983D01*
X161500Y353696D01*
Y352304D01*
X162033Y351017D01*
X163017Y350033D01*
X164304Y349500D01*
X165696D01*
X166983Y350033D01*
X167967Y351017D01*
X168500Y352304D01*
Y353696D01*
X167967Y354983D01*
X166983Y355967D01*
X165696Y356500D01*
D02*
G37*
G36*
X554674Y332000D02*
X551326D01*
X548041Y331347D01*
X544948Y330065D01*
X542163Y328205D01*
X541686Y327728D01*
X543276Y326138D01*
X541862Y324724D01*
X540272Y326314D01*
X539795Y325837D01*
X537935Y323052D01*
X536653Y319959D01*
X536000Y316674D01*
Y313326D01*
X536653Y310041D01*
X537935Y306947D01*
X539795Y304163D01*
X540272Y303686D01*
X541862Y305276D01*
X543276Y303862D01*
X541686Y302272D01*
X542163Y301795D01*
X544948Y299935D01*
X548041Y298653D01*
X551326Y298000D01*
X554674D01*
X557959Y298653D01*
X561053Y299935D01*
X563837Y301795D01*
X564314Y302272D01*
X562724Y303862D01*
X564138Y305276D01*
X565728Y303686D01*
X566205Y304163D01*
X568065Y306947D01*
X569347Y310041D01*
X570000Y313326D01*
Y316674D01*
X569347Y319959D01*
X568065Y323052D01*
X566205Y325837D01*
X565728Y326314D01*
X564138Y324724D01*
X562724Y326138D01*
X564314Y327728D01*
X563837Y328205D01*
X561053Y330065D01*
X557959Y331347D01*
X554674Y332000D01*
D02*
G37*
G36*
X405696Y319500D02*
X404304D01*
X403017Y318967D01*
X402033Y317983D01*
X401500Y316696D01*
Y315304D01*
X402033Y314017D01*
X403017Y313033D01*
X404304Y312500D01*
X405696D01*
X406983Y313033D01*
X407967Y314017D01*
X408500Y315304D01*
Y316696D01*
X407967Y317983D01*
X406983Y318967D01*
X405696Y319500D01*
D02*
G37*
G36*
X462696Y294500D02*
X461304D01*
X460017Y293967D01*
X459033Y292983D01*
X458500Y291696D01*
Y290304D01*
X459033Y289017D01*
X460017Y288033D01*
X461304Y287500D01*
X462696D01*
X463983Y288033D01*
X464967Y289017D01*
X465500Y290304D01*
Y291696D01*
X464967Y292983D01*
X463983Y293967D01*
X462696Y294500D01*
D02*
G37*
G36*
X435696Y289500D02*
X434304D01*
X433017Y288967D01*
X432033Y287983D01*
X431500Y286696D01*
Y285304D01*
X432033Y284017D01*
X433017Y283033D01*
X434304Y282500D01*
X435696D01*
X436983Y283033D01*
X437967Y284017D01*
X438500Y285304D01*
Y286696D01*
X437967Y287983D01*
X436983Y288967D01*
X435696Y289500D01*
D02*
G37*
G36*
X463696Y284500D02*
X462304D01*
X461017Y283967D01*
X460033Y282983D01*
X459500Y281696D01*
Y280304D01*
X460033Y279017D01*
X461017Y278033D01*
X462304Y277500D01*
X463696D01*
X464983Y278033D01*
X465967Y279017D01*
X466500Y280304D01*
Y281696D01*
X465967Y282983D01*
X464983Y283967D01*
X463696Y284500D01*
D02*
G37*
G36*
X430696Y260500D02*
X429304D01*
X428017Y259967D01*
X427033Y258983D01*
X426500Y257696D01*
Y256304D01*
X427033Y255017D01*
X428017Y254033D01*
X429304Y253500D01*
X430696D01*
X431983Y254033D01*
X432967Y255017D01*
X433500Y256304D01*
Y257696D01*
X432967Y258983D01*
X431983Y259967D01*
X430696Y260500D01*
D02*
G37*
G36*
X462696Y253500D02*
X461304D01*
X460017Y252967D01*
X459033Y251983D01*
X458500Y250696D01*
Y249304D01*
X459033Y248017D01*
X460017Y247033D01*
X461304Y246500D01*
X462696D01*
X463983Y247033D01*
X464967Y248017D01*
X465500Y249304D01*
Y250696D01*
X464967Y251983D01*
X463983Y252967D01*
X462696Y253500D01*
D02*
G37*
G36*
X420696Y248500D02*
X419304D01*
X418017Y247967D01*
X417033Y246983D01*
X416500Y245696D01*
Y244304D01*
X417033Y243017D01*
X418017Y242033D01*
X419304Y241500D01*
X420696D01*
X421983Y242033D01*
X422967Y243017D01*
X423500Y244304D01*
Y245696D01*
X422967Y246983D01*
X421983Y247967D01*
X420696Y248500D01*
D02*
G37*
G36*
X486696Y227500D02*
X485304D01*
X484017Y226967D01*
X483033Y225983D01*
X482500Y224696D01*
Y223304D01*
X483033Y222017D01*
X484017Y221033D01*
X485304Y220500D01*
X486696D01*
X487983Y221033D01*
X488967Y222017D01*
X489500Y223304D01*
Y224696D01*
X488967Y225983D01*
X487983Y226967D01*
X486696Y227500D01*
D02*
G37*
G36*
X440696Y205500D02*
X439304D01*
X438017Y204967D01*
X437033Y203983D01*
X436500Y202696D01*
Y201304D01*
X437033Y200017D01*
X438017Y199033D01*
X439304Y198500D01*
X440696D01*
X441983Y199033D01*
X442967Y200017D01*
X443500Y201304D01*
Y202696D01*
X442967Y203983D01*
X441983Y204967D01*
X440696Y205500D01*
D02*
G37*
G36*
X385696D02*
X384304D01*
X383017Y204967D01*
X382033Y203983D01*
X381500Y202696D01*
Y201304D01*
X382033Y200017D01*
X383017Y199033D01*
X384304Y198500D01*
X385696D01*
X386983Y199033D01*
X387967Y200017D01*
X388500Y201304D01*
Y202696D01*
X387967Y203983D01*
X386983Y204967D01*
X385696Y205500D01*
D02*
G37*
G36*
X337696Y156895D02*
X336304D01*
X335017Y156362D01*
X334033Y155378D01*
X333500Y154091D01*
Y152699D01*
X334033Y151412D01*
X335017Y150428D01*
X336304Y149895D01*
X337696D01*
X338983Y150428D01*
X339967Y151412D01*
X340500Y152699D01*
Y154091D01*
X339967Y155378D01*
X338983Y156362D01*
X337696Y156895D01*
D02*
G37*
G36*
X283196Y156000D02*
X281804D01*
X280517Y155467D01*
X279533Y154483D01*
X279000Y153196D01*
Y151804D01*
X279533Y150517D01*
X280517Y149533D01*
X281804Y149000D01*
X283196D01*
X284483Y149533D01*
X285467Y150517D01*
X286000Y151804D01*
Y153196D01*
X285467Y154483D01*
X284483Y155467D01*
X283196Y156000D01*
D02*
G37*
G36*
X350196Y144725D02*
X348804D01*
X347517Y144192D01*
X346533Y143208D01*
X346000Y141921D01*
Y140529D01*
X346533Y139242D01*
X347517Y138258D01*
X348804Y137725D01*
X350196D01*
X351483Y138258D01*
X352467Y139242D01*
X353000Y140529D01*
Y141921D01*
X352467Y143208D01*
X351483Y144192D01*
X350196Y144725D01*
D02*
G37*
G36*
X300196D02*
X298804D01*
X297517Y144192D01*
X296533Y143208D01*
X296000Y141921D01*
Y140529D01*
X296533Y139242D01*
X297517Y138258D01*
X298804Y137725D01*
X300196D01*
X301483Y138258D01*
X302467Y139242D01*
X303000Y140529D01*
Y141921D01*
X302467Y143208D01*
X301483Y144192D01*
X300196Y144725D01*
D02*
G37*
G36*
X51316Y145000D02*
X48684D01*
X46140Y144319D01*
X43860Y143002D01*
X41998Y141140D01*
X40682Y138860D01*
X40000Y136316D01*
Y133684D01*
X40682Y131140D01*
X41998Y128860D01*
X43860Y126998D01*
X46140Y125681D01*
X48684Y125000D01*
X51316D01*
X53860Y125681D01*
X56140Y126998D01*
X58002Y128860D01*
X59318Y131140D01*
X60000Y133684D01*
Y136316D01*
X59318Y138860D01*
X58002Y141140D01*
X56140Y143002D01*
X53860Y144319D01*
X51316Y145000D01*
D02*
G37*
G36*
X96448Y146000D02*
X93552D01*
X90754Y145250D01*
X88246Y143802D01*
X86198Y141754D01*
X84750Y139246D01*
X84000Y136448D01*
Y133552D01*
X84750Y130754D01*
X86198Y128246D01*
X88246Y126198D01*
X90754Y124750D01*
X93552Y124000D01*
X96448D01*
X99246Y124750D01*
X101754Y126198D01*
X103802Y128246D01*
X105250Y130754D01*
X106000Y133552D01*
Y136448D01*
X105250Y139246D01*
X103802Y141754D01*
X101754Y143802D01*
X99246Y145250D01*
X96448Y146000D01*
D02*
G37*
G36*
X554674Y132000D02*
X551326D01*
X548041Y131347D01*
X544948Y130065D01*
X542163Y128205D01*
X539795Y125837D01*
X537935Y123053D01*
X536653Y119959D01*
X536000Y116674D01*
Y113326D01*
X536653Y110041D01*
X537935Y106947D01*
X539795Y104163D01*
X542163Y101795D01*
X544948Y99935D01*
X548041Y98653D01*
X551326Y98000D01*
X554674D01*
X557959Y98653D01*
X561053Y99935D01*
X563837Y101795D01*
X566205Y104163D01*
X568065Y106947D01*
X569347Y110041D01*
X570000Y113326D01*
Y116674D01*
X569347Y119959D01*
X568065Y123053D01*
X566205Y125837D01*
X563837Y128205D01*
X561053Y130065D01*
X557959Y131347D01*
X554674Y132000D01*
D02*
G37*
G36*
X343196Y101500D02*
X341804D01*
X340517Y100967D01*
X339533Y99983D01*
X339000Y98696D01*
Y97304D01*
X339533Y96017D01*
X340517Y95033D01*
X341804Y94500D01*
X343196D01*
X344483Y95033D01*
X345467Y96017D01*
X346000Y97304D01*
Y98696D01*
X345467Y99983D01*
X344483Y100967D01*
X343196Y101500D01*
D02*
G37*
G36*
X333196Y96000D02*
X331804D01*
X330517Y95467D01*
X329533Y94483D01*
X329000Y93196D01*
Y91804D01*
X329533Y90517D01*
X330517Y89533D01*
X331804Y89000D01*
X333196D01*
X334483Y89533D01*
X335467Y90517D01*
X336000Y91804D01*
Y93196D01*
X335467Y94483D01*
X334483Y95467D01*
X333196Y96000D01*
D02*
G37*
G36*
X293196D02*
X291804D01*
X290517Y95467D01*
X289533Y94483D01*
X289000Y93196D01*
Y91804D01*
X289533Y90517D01*
X290517Y89533D01*
X291804Y89000D01*
X293196D01*
X294483Y89533D01*
X295467Y90517D01*
X296000Y91804D01*
Y93196D01*
X295467Y94483D01*
X294483Y95467D01*
X293196Y96000D01*
D02*
G37*
G36*
X283196D02*
X281804D01*
X280517Y95467D01*
X279533Y94483D01*
X279000Y93196D01*
Y91804D01*
X279533Y90517D01*
X280517Y89533D01*
X281804Y89000D01*
X283196D01*
X284483Y89533D01*
X285467Y90517D01*
X286000Y91804D01*
Y93196D01*
X285467Y94483D01*
X284483Y95467D01*
X283196Y96000D01*
D02*
G37*
%LPD*%
D107*
X553000Y115000D02*
D03*
Y315000D02*
D03*
D108*
X613000Y421000D02*
D03*
X625700D02*
D03*
X651100D02*
D03*
X663800D02*
D03*
X676500D02*
D03*
X638400D02*
D03*
X691000Y565600D02*
D03*
Y527500D02*
D03*
Y540200D02*
D03*
Y552900D02*
D03*
Y578300D02*
D03*
Y591000D02*
D03*
D109*
X796780Y427300D02*
D03*
X809280Y402300D02*
D03*
X796780Y27300D02*
D03*
X771780Y427300D02*
D03*
X784280Y402300D02*
D03*
X771780Y27300D02*
D03*
X746780Y427300D02*
D03*
X759280Y402300D02*
D03*
X746780Y27300D02*
D03*
X721780Y727300D02*
D03*
Y677300D02*
D03*
Y627300D02*
D03*
Y577300D02*
D03*
Y527300D02*
D03*
Y477300D02*
D03*
Y427300D02*
D03*
X734280Y402300D02*
D03*
X721780Y27300D02*
D03*
X696780Y727300D02*
D03*
X709280Y702300D02*
D03*
X696780Y677300D02*
D03*
X709280Y652300D02*
D03*
X696780Y627300D02*
D03*
X709280Y602300D02*
D03*
Y552300D02*
D03*
Y502300D02*
D03*
X696780Y477300D02*
D03*
X709280Y452300D02*
D03*
X696780Y427300D02*
D03*
X709280Y402300D02*
D03*
X696780Y27300D02*
D03*
X671780Y727300D02*
D03*
X684280Y702300D02*
D03*
X671780Y677300D02*
D03*
X684280Y652300D02*
D03*
X671780Y627300D02*
D03*
X684280Y602300D02*
D03*
X671780Y527300D02*
D03*
X684280Y502300D02*
D03*
X671780Y477300D02*
D03*
X684280Y452300D02*
D03*
Y402300D02*
D03*
X671780Y27300D02*
D03*
X646780Y727300D02*
D03*
X659280Y702300D02*
D03*
X646780Y677300D02*
D03*
X659280Y652300D02*
D03*
X646780Y627300D02*
D03*
X659280Y602300D02*
D03*
X646780Y527300D02*
D03*
X659280Y502300D02*
D03*
X646780Y477300D02*
D03*
X659280Y452300D02*
D03*
Y402300D02*
D03*
X646780Y27300D02*
D03*
X621780Y727300D02*
D03*
X634280Y702300D02*
D03*
X621780Y677300D02*
D03*
X634280Y652300D02*
D03*
X621780Y627300D02*
D03*
X634280Y602300D02*
D03*
X621780Y527300D02*
D03*
X634280Y502300D02*
D03*
X621780Y477300D02*
D03*
X634280Y452300D02*
D03*
Y402300D02*
D03*
X621780Y27300D02*
D03*
X596780Y727300D02*
D03*
X609280Y702300D02*
D03*
X596780Y677300D02*
D03*
X609280Y652300D02*
D03*
Y602300D02*
D03*
X596780Y527300D02*
D03*
X609280Y502300D02*
D03*
X596780Y477300D02*
D03*
X609280Y452300D02*
D03*
X596780Y427300D02*
D03*
X609280Y402300D02*
D03*
X596780Y27300D02*
D03*
X571780Y727300D02*
D03*
X584280Y702300D02*
D03*
X571780Y677300D02*
D03*
Y527300D02*
D03*
X584280Y502300D02*
D03*
X571780Y477300D02*
D03*
X584280Y452300D02*
D03*
Y402300D02*
D03*
X571780Y377300D02*
D03*
Y327300D02*
D03*
Y277300D02*
D03*
Y227300D02*
D03*
Y177300D02*
D03*
Y127300D02*
D03*
Y77300D02*
D03*
Y27300D02*
D03*
X546780Y727300D02*
D03*
X559280Y702300D02*
D03*
X546780Y677300D02*
D03*
X559280Y502300D02*
D03*
Y402300D02*
D03*
X546780Y377300D02*
D03*
X559280Y352300D02*
D03*
Y252300D02*
D03*
X546780Y227300D02*
D03*
X559280Y202300D02*
D03*
X546780Y77300D02*
D03*
X559280Y52300D02*
D03*
X546780Y27300D02*
D03*
X521780Y727300D02*
D03*
X534280Y702300D02*
D03*
X521780Y677300D02*
D03*
Y577300D02*
D03*
Y477300D02*
D03*
Y377300D02*
D03*
X534280Y352300D02*
D03*
X521780Y327300D02*
D03*
X534280Y302300D02*
D03*
X521780Y227300D02*
D03*
X534280Y152300D02*
D03*
X521780Y77300D02*
D03*
X534280Y52300D02*
D03*
X521780Y27300D02*
D03*
X496780Y727300D02*
D03*
X509280Y702300D02*
D03*
X496780Y677300D02*
D03*
X509280Y652300D02*
D03*
X496780Y627300D02*
D03*
Y577300D02*
D03*
X509280Y552300D02*
D03*
Y502300D02*
D03*
X496780Y477300D02*
D03*
X509280Y352300D02*
D03*
X496780Y327300D02*
D03*
X509280Y202300D02*
D03*
X496780Y177300D02*
D03*
Y127300D02*
D03*
Y77300D02*
D03*
X509280Y52300D02*
D03*
X496780Y27300D02*
D03*
X471780Y727300D02*
D03*
X484280Y702300D02*
D03*
X471780Y677300D02*
D03*
X484280Y652300D02*
D03*
X471780Y627300D02*
D03*
X484280Y602300D02*
D03*
Y552300D02*
D03*
Y502300D02*
D03*
X471780Y477300D02*
D03*
X484280Y402300D02*
D03*
Y352300D02*
D03*
Y302300D02*
D03*
Y252300D02*
D03*
X471780Y227300D02*
D03*
Y177300D02*
D03*
X484280Y52300D02*
D03*
X471780Y27300D02*
D03*
X446780Y727300D02*
D03*
X459280Y702300D02*
D03*
X446780Y677300D02*
D03*
X459280Y652300D02*
D03*
Y552300D02*
D03*
Y502300D02*
D03*
X446780Y227300D02*
D03*
Y177300D02*
D03*
X459280Y52300D02*
D03*
X446780Y27300D02*
D03*
X421780Y727300D02*
D03*
X434280Y702300D02*
D03*
X421780Y677300D02*
D03*
X434280Y552300D02*
D03*
X421780Y527300D02*
D03*
X434280Y502300D02*
D03*
X421780Y477300D02*
D03*
Y177300D02*
D03*
Y27300D02*
D03*
X396780Y727300D02*
D03*
X409280Y702300D02*
D03*
X396780Y677300D02*
D03*
X409280Y552300D02*
D03*
Y352300D02*
D03*
X396780Y27300D02*
D03*
X371780Y727300D02*
D03*
X384280Y702300D02*
D03*
X371780Y677300D02*
D03*
X384280Y552300D02*
D03*
X371780Y527300D02*
D03*
X384280Y502300D02*
D03*
X371780Y477300D02*
D03*
X384280Y352300D02*
D03*
Y302300D02*
D03*
X371780Y177300D02*
D03*
X384280Y152300D02*
D03*
X371780Y27300D02*
D03*
X346780Y727300D02*
D03*
X359280Y702300D02*
D03*
X346780Y677300D02*
D03*
X359280Y652300D02*
D03*
X346780Y627300D02*
D03*
X359280Y502300D02*
D03*
Y352300D02*
D03*
X346780Y327300D02*
D03*
X359280Y302300D02*
D03*
Y252300D02*
D03*
Y152300D02*
D03*
X346780Y27300D02*
D03*
X321780Y727300D02*
D03*
X334280Y702300D02*
D03*
X321780Y677300D02*
D03*
X334280Y352300D02*
D03*
Y302300D02*
D03*
Y252300D02*
D03*
Y202300D02*
D03*
X321780Y27300D02*
D03*
X296780Y727300D02*
D03*
X309280Y702300D02*
D03*
X296780Y677300D02*
D03*
X309280Y602300D02*
D03*
X296780Y27300D02*
D03*
X271780Y727300D02*
D03*
X284280Y702300D02*
D03*
X271780Y677300D02*
D03*
Y27300D02*
D03*
X246780Y727300D02*
D03*
X259280Y702300D02*
D03*
X246780Y677300D02*
D03*
X259280Y652300D02*
D03*
X246780Y477300D02*
D03*
Y27300D02*
D03*
X221780Y727300D02*
D03*
X234280Y702300D02*
D03*
X221780Y677300D02*
D03*
X234280Y652300D02*
D03*
X221780Y627300D02*
D03*
X234280Y602300D02*
D03*
Y552300D02*
D03*
X221780Y527300D02*
D03*
Y177300D02*
D03*
X234280Y152300D02*
D03*
X221780Y27300D02*
D03*
X196780Y727300D02*
D03*
X209280Y702300D02*
D03*
X196780Y677300D02*
D03*
Y227300D02*
D03*
X209280Y202300D02*
D03*
X196780Y127300D02*
D03*
X209280Y52300D02*
D03*
X196780Y27300D02*
D03*
X171780Y727300D02*
D03*
X184280Y702300D02*
D03*
X171780Y677300D02*
D03*
X184280Y452300D02*
D03*
X171780Y327300D02*
D03*
X184280Y302300D02*
D03*
X171780Y277300D02*
D03*
X184280Y252300D02*
D03*
X171780Y227300D02*
D03*
X184280Y202300D02*
D03*
X171780Y177300D02*
D03*
Y127300D02*
D03*
X184280Y102300D02*
D03*
X171780Y77300D02*
D03*
X184280Y52300D02*
D03*
X171780Y27300D02*
D03*
X146780Y727300D02*
D03*
X159280Y702300D02*
D03*
X146780Y677300D02*
D03*
Y227300D02*
D03*
X159280Y202300D02*
D03*
X146780Y177300D02*
D03*
X159280Y152300D02*
D03*
X146780Y127300D02*
D03*
X159280Y102300D02*
D03*
X146780Y77300D02*
D03*
X159280Y52300D02*
D03*
X146780Y27300D02*
D03*
X121780Y727300D02*
D03*
X134280Y702300D02*
D03*
X121780Y677300D02*
D03*
Y327300D02*
D03*
Y227300D02*
D03*
X134280Y202300D02*
D03*
Y152300D02*
D03*
X121780Y127300D02*
D03*
X134280Y102300D02*
D03*
Y52300D02*
D03*
X121780Y27300D02*
D03*
X96780Y727300D02*
D03*
X109280Y702300D02*
D03*
X96780Y677300D02*
D03*
Y377300D02*
D03*
X109280Y352300D02*
D03*
X96780Y327300D02*
D03*
Y227300D02*
D03*
Y177300D02*
D03*
X109280Y152300D02*
D03*
Y102300D02*
D03*
X96780Y77300D02*
D03*
X109280Y52300D02*
D03*
X96780Y27300D02*
D03*
X71780Y727300D02*
D03*
X84280Y702300D02*
D03*
X71780Y677300D02*
D03*
Y377300D02*
D03*
Y327300D02*
D03*
X84280Y252300D02*
D03*
X71780Y227300D02*
D03*
X84280Y202300D02*
D03*
X71780Y177300D02*
D03*
X84280Y152300D02*
D03*
X71780Y127300D02*
D03*
X84280Y102300D02*
D03*
X71780Y77300D02*
D03*
X84280Y52300D02*
D03*
X71780Y27300D02*
D03*
X46780Y727300D02*
D03*
X59280Y702300D02*
D03*
X46780Y677300D02*
D03*
X59280Y402300D02*
D03*
X46780Y377300D02*
D03*
X59280Y302300D02*
D03*
X46780Y277300D02*
D03*
X59280Y152300D02*
D03*
Y102300D02*
D03*
Y52300D02*
D03*
X46780Y27300D02*
D03*
X21780Y727300D02*
D03*
X34280Y702300D02*
D03*
X21780Y677300D02*
D03*
X34280Y452300D02*
D03*
X21780Y427300D02*
D03*
X34280Y402300D02*
D03*
X21780Y377300D02*
D03*
X34280Y352300D02*
D03*
X21780Y327300D02*
D03*
X34280Y302300D02*
D03*
X21780Y277300D02*
D03*
X34280Y252300D02*
D03*
X21780Y227300D02*
D03*
X34280Y202300D02*
D03*
X21780Y177300D02*
D03*
X34280Y152300D02*
D03*
X21780Y127300D02*
D03*
X34280Y102300D02*
D03*
X21780Y77300D02*
D03*
X34280Y52300D02*
D03*
X21780Y27300D02*
D03*
X515000Y631000D02*
D03*
X193000Y449000D02*
D03*
X485000Y438000D02*
D03*
X448000Y441000D02*
D03*
X420000Y303000D02*
D03*
X413000Y334000D02*
D03*
X386500Y188500D02*
D03*
Y145500D02*
D03*
X418500Y144500D02*
D03*
Y187500D02*
D03*
X451000Y431000D02*
D03*
X460000Y317000D02*
D03*
X438000Y279000D02*
D03*
X182000Y444000D02*
D03*
X134000Y442000D02*
D03*
X108000Y441000D02*
D03*
X220000Y371000D02*
D03*
X189000Y192000D02*
D03*
Y149000D02*
D03*
X185000Y323000D02*
D03*
X221000Y191000D02*
D03*
Y148000D02*
D03*
X176000Y402000D02*
D03*
X164000Y389000D02*
D03*
X177000Y377000D02*
D03*
X145000Y389000D02*
D03*
X154000Y383000D02*
D03*
X131000Y430000D02*
D03*
X145000Y375000D02*
D03*
X166000Y344000D02*
D03*
X163000Y321000D02*
D03*
Y302000D02*
D03*
M02*
