G04*
G04 #@! TF.GenerationSoftware,Altium Limited,Altium Designer,25.8.1 (18)*
G04*
G04 Layer_Physical_Order=4*
G04 Layer_Color=16711680*
%FSLAX44Y44*%
%MOMM*%
G71*
G04*
G04 #@! TF.SameCoordinates,DE4AE33E-2997-4D41-B439-913A94775957*
G04*
G04*
G04 #@! TF.FilePolarity,Positive*
G04*
G01*
G75*
%ADD20C,0.2000*%
%ADD21C,1.0000*%
%ADD22C,0.5000*%
%ADD23R,0.6500X0.4000*%
%ADD24R,0.4000X0.6500*%
G36*
X222451Y170000D02*
X222392D01*
X222822Y166737D01*
X224081Y163696D01*
X226085Y161085D01*
X228696Y159081D01*
X231737Y157822D01*
X235000Y157392D01*
Y157451D01*
X262451D01*
Y42549D01*
X235000D01*
Y42608D01*
X231737Y42178D01*
X228696Y40919D01*
X226085Y38915D01*
X224081Y36304D01*
X222822Y33263D01*
X222392Y30000D01*
X222451D01*
Y24964D01*
X222469Y24874D01*
X222049Y20614D01*
X220770Y16397D01*
X218692Y12510D01*
X215897Y9103D01*
X212490Y6308D01*
X208603Y4230D01*
X204386Y2951D01*
X201934Y2709D01*
X200000Y2549D01*
X200000Y2549D01*
X198034Y2549D01*
X0D01*
X-0Y2549D01*
X-15000D01*
X-15102Y2529D01*
X-19386Y2951D01*
X-23603Y4230D01*
X-27490Y6308D01*
X-30897Y9103D01*
X-33693Y12510D01*
X-35770Y16397D01*
X-37049Y20614D01*
X-37481Y25000D01*
X-37049Y29386D01*
X-35770Y33603D01*
X-33693Y37490D01*
X-30897Y40897D01*
X-27490Y43692D01*
X-23603Y45770D01*
X-19386Y47049D01*
X-15102Y47471D01*
X-15000Y47451D01*
X-10000D01*
Y47392D01*
X-6737Y47822D01*
X-3696Y49081D01*
X-1085Y51085D01*
X919Y53696D01*
X2178Y56737D01*
X2608Y60000D01*
X2549D01*
Y159451D01*
X10000D01*
Y159392D01*
X13263Y159822D01*
X16304Y161081D01*
X18915Y163085D01*
X20919Y165696D01*
X22178Y168737D01*
X22608Y172000D01*
X22549D01*
Y197451D01*
X222451D01*
Y170000D01*
D02*
G37*
%LPC*%
G36*
X201646Y187500D02*
X198354D01*
X195175Y186648D01*
X192325Y185002D01*
X189998Y182675D01*
X188352Y179825D01*
X187500Y176646D01*
Y173354D01*
X188352Y170175D01*
X189998Y167325D01*
X192325Y164998D01*
X195175Y163352D01*
X198354Y162500D01*
X201646D01*
X204825Y163352D01*
X207675Y164998D01*
X210002Y167325D01*
X211648Y170175D01*
X212500Y173354D01*
Y176646D01*
X211648Y179825D01*
X210002Y182675D01*
X207675Y185002D01*
X204825Y186648D01*
X201646Y187500D01*
D02*
G37*
G36*
X165250Y159000D02*
X161000D01*
Y156785D01*
X159000D01*
Y159000D01*
X154750D01*
Y156000D01*
X156965D01*
Y154000D01*
X154750D01*
Y151059D01*
X154750Y151000D01*
X154608Y149059D01*
X117767D01*
X117000Y149826D01*
Y150895D01*
X116315Y152549D01*
X115049Y153815D01*
X113395Y154500D01*
X111605D01*
X109951Y153815D01*
X108685Y152549D01*
X108000Y150895D01*
Y149105D01*
X108685Y147451D01*
X109951Y146185D01*
X111605Y145500D01*
X112674D01*
X114337Y143837D01*
X114337Y143837D01*
X115330Y143174D01*
X116500Y142941D01*
X116500Y142941D01*
X154750D01*
Y141000D01*
X156941D01*
Y139000D01*
X154750D01*
Y131059D01*
X154750Y131000D01*
X154632Y129385D01*
X153787Y129312D01*
X152000Y130895D01*
X151315Y132549D01*
X150049Y133815D01*
X148395Y134500D01*
X146605D01*
X144951Y133815D01*
X143685Y132549D01*
X143000Y130895D01*
Y129105D01*
X143685Y127451D01*
X144951Y126185D01*
X146605Y125500D01*
X147674D01*
X149337Y123837D01*
X149337Y123837D01*
X150330Y123174D01*
X151500Y122941D01*
X151500Y122941D01*
X154750D01*
Y121000D01*
X165250D01*
Y128941D01*
X165250Y129000D01*
X165368Y130615D01*
X167386Y130788D01*
X177516Y120659D01*
X178508Y119995D01*
X179333Y119831D01*
X179513Y119163D01*
X180434Y117566D01*
X181222Y116778D01*
X181546Y115514D01*
X181222Y114251D01*
X180434Y113462D01*
X179513Y111866D01*
X179036Y110086D01*
Y108243D01*
X179513Y106463D01*
X180434Y104866D01*
X181222Y104078D01*
X181546Y102815D01*
X181222Y101551D01*
X180434Y100763D01*
X179513Y99166D01*
X179036Y97386D01*
Y95543D01*
X177141Y95309D01*
X165250D01*
Y101500D01*
X154750D01*
Y95309D01*
X151000D01*
X151000Y95309D01*
X150704Y95250D01*
X146000D01*
Y84750D01*
Y74750D01*
X152238Y74750D01*
X152677Y74750D01*
X153110Y74692D01*
X153256Y74663D01*
X154230Y74231D01*
X154676Y73226D01*
X154750Y72677D01*
X154750Y72489D01*
Y66000D01*
X165250D01*
Y74000D01*
X163059D01*
Y79191D01*
X180709D01*
X181222Y78678D01*
X181546Y77414D01*
X181222Y76151D01*
X180434Y75363D01*
X179513Y73766D01*
X179036Y71986D01*
Y70143D01*
X179513Y68363D01*
X180434Y66766D01*
X181737Y65463D01*
X182977Y64748D01*
Y60000D01*
X182977Y60000D01*
X182977Y60000D01*
Y53802D01*
X177233Y48059D01*
X135309D01*
Y59000D01*
X135309Y59000D01*
X135250Y59296D01*
Y64000D01*
X124750D01*
Y56000D01*
X129191D01*
Y46172D01*
X129191Y46172D01*
X129424Y45001D01*
X130087Y44009D01*
X131259Y42837D01*
X131259Y42837D01*
X132251Y42174D01*
X133422Y41941D01*
X133422Y41941D01*
X178500D01*
X178500Y41941D01*
X179671Y42174D01*
X180663Y42837D01*
X188198Y50373D01*
X188198Y50373D01*
X188862Y51365D01*
X189094Y52536D01*
X189094Y52536D01*
Y56941D01*
X222500D01*
X222500Y56941D01*
X223671Y57174D01*
X224663Y57837D01*
X244663Y77837D01*
X245326Y78829D01*
X245559Y80000D01*
Y86000D01*
X247750D01*
Y94000D01*
X237250D01*
Y86000D01*
X239441D01*
Y81267D01*
X221233Y63059D01*
X190169D01*
X189633Y65059D01*
X190334Y65463D01*
X191637Y66766D01*
X192558Y68363D01*
X193036Y70143D01*
Y71986D01*
X192558Y73766D01*
X191637Y75363D01*
X190849Y76151D01*
X190525Y77414D01*
X190849Y78678D01*
X191637Y79466D01*
X192558Y81063D01*
X193036Y82843D01*
Y84686D01*
X192558Y86466D01*
X191637Y88062D01*
X190849Y88851D01*
X190525Y90114D01*
X190849Y91378D01*
X191637Y92166D01*
X192558Y93763D01*
X193036Y95543D01*
Y97386D01*
X192558Y99166D01*
X191637Y100763D01*
X190849Y101551D01*
X190525Y102815D01*
X190849Y104078D01*
X191637Y104866D01*
X192558Y106463D01*
X193036Y108243D01*
Y110086D01*
X192558Y111866D01*
X191637Y113462D01*
X190849Y114251D01*
X190525Y115514D01*
X190849Y116778D01*
X191637Y117566D01*
X192558Y119163D01*
X193036Y120943D01*
Y122786D01*
X192558Y124566D01*
X191637Y126163D01*
X190849Y126951D01*
X190525Y128215D01*
X190616Y128570D01*
X188641Y130545D01*
X190055Y131959D01*
X191677Y130337D01*
X192558Y131863D01*
X193036Y133643D01*
Y135486D01*
X192558Y137266D01*
X191677Y138792D01*
X190055Y137170D01*
X188641Y138584D01*
X190263Y140206D01*
X188737Y141087D01*
X186957Y141564D01*
X185114D01*
X183334Y141087D01*
X181808Y140206D01*
X183430Y138584D01*
X182016Y137170D01*
X180394Y138792D01*
X179513Y137266D01*
X179036Y135486D01*
Y133643D01*
X179513Y131863D01*
X180434Y130266D01*
X180718Y129983D01*
X180395Y127821D01*
X179304Y127522D01*
X170663Y136163D01*
X169671Y136826D01*
X168500Y137059D01*
X168500Y137059D01*
X165250D01*
Y139000D01*
X163059D01*
Y141000D01*
X165250D01*
Y149000D01*
X161305D01*
X161150Y149172D01*
X161960Y151000D01*
X165250D01*
Y154000D01*
X163035D01*
Y156000D01*
X165250D01*
Y159000D01*
D02*
G37*
G36*
X247750Y124000D02*
X243500D01*
Y121785D01*
X241500D01*
Y124000D01*
X237250D01*
Y121000D01*
X239465D01*
Y119000D01*
X237250D01*
Y116000D01*
X241500D01*
Y118215D01*
X243500D01*
Y116000D01*
X247750D01*
Y119000D01*
X245535D01*
Y121000D01*
X247750D01*
Y124000D01*
D02*
G37*
G36*
X165250Y111500D02*
X161000D01*
Y109285D01*
X159000D01*
Y111500D01*
X154750D01*
Y108500D01*
X156965D01*
Y106500D01*
X154750D01*
Y103500D01*
X159000D01*
Y105715D01*
X161000D01*
Y103500D01*
X165250D01*
Y106500D01*
X163035D01*
Y108500D01*
X165250D01*
Y111500D01*
D02*
G37*
G36*
X118395Y112000D02*
X116605D01*
X114951Y111315D01*
X113685Y110049D01*
X113000Y108395D01*
Y106605D01*
X113685Y104951D01*
X114951Y103685D01*
X116605Y103000D01*
X118395D01*
X120049Y103685D01*
X120805Y104441D01*
X124750D01*
Y103500D01*
X135250D01*
Y111500D01*
X124750D01*
Y110559D01*
X120805D01*
X120049Y111315D01*
X118395Y112000D01*
D02*
G37*
G36*
X225895Y114082D02*
X224105D01*
X222451Y113397D01*
X221185Y112131D01*
X220500Y110477D01*
Y108687D01*
X221185Y107033D01*
X222451Y105767D01*
X224105Y105082D01*
X225895D01*
X227549Y105767D01*
X228723Y106941D01*
X237250D01*
Y106000D01*
X239441D01*
Y104000D01*
X237250D01*
Y96000D01*
X247750D01*
Y104000D01*
X245559D01*
Y106000D01*
X247750D01*
Y114000D01*
X237250D01*
Y113059D01*
X227887D01*
X227549Y113397D01*
X225895Y114082D01*
D02*
G37*
G36*
X89113Y112250D02*
X85887D01*
X82772Y111415D01*
X79978Y109802D01*
X77698Y107522D01*
X76085Y104728D01*
X75250Y101613D01*
Y98387D01*
X76085Y95272D01*
X77698Y92478D01*
X79978Y90198D01*
X82772Y88585D01*
X85887Y87750D01*
X89113D01*
X92228Y88585D01*
X95022Y90198D01*
X97302Y92478D01*
X98915Y95272D01*
X99750Y98387D01*
Y101613D01*
X98915Y104728D01*
X97302Y107522D01*
X95022Y109802D01*
X92228Y111415D01*
X89113Y112250D01*
D02*
G37*
G36*
X135250Y101500D02*
X124750D01*
Y97826D01*
X119969Y93045D01*
X118819Y92816D01*
X117827Y92153D01*
X117827Y92153D01*
X112674Y87000D01*
X111605D01*
X109951Y86315D01*
X108685Y85049D01*
X108000Y83395D01*
Y81605D01*
X108685Y79951D01*
X109951Y78685D01*
X111605Y78000D01*
X113395D01*
X115049Y78685D01*
X116315Y79951D01*
X117000Y81605D01*
Y82674D01*
X121261Y86935D01*
X122410Y87164D01*
X123403Y87827D01*
X129076Y93500D01*
X130704D01*
X131000Y93441D01*
X131000Y93441D01*
X133483D01*
X136000Y90924D01*
Y79076D01*
X130924Y74000D01*
X124750D01*
Y73059D01*
X82500D01*
X81329Y72826D01*
X80337Y72163D01*
X62674Y54500D01*
X61605D01*
X59951Y53815D01*
X58685Y52549D01*
X58000Y50895D01*
Y49105D01*
X58685Y47451D01*
X59951Y46185D01*
X61605Y45500D01*
X63395D01*
X65049Y46185D01*
X66315Y47451D01*
X67000Y49105D01*
Y50174D01*
X75736Y58910D01*
X77131Y58433D01*
X77666Y58012D01*
Y51750D01*
X78001Y49205D01*
X78983Y46833D01*
X80546Y44796D01*
X82583Y43233D01*
X84955Y42251D01*
X87500Y41916D01*
X90045Y42251D01*
X92417Y43233D01*
X94454Y44796D01*
X96017Y46833D01*
X96999Y49205D01*
X97334Y51750D01*
Y58250D01*
X96999Y60795D01*
X96017Y63167D01*
X94655Y64941D01*
X94905Y65971D01*
X95475Y66941D01*
X124750D01*
Y66000D01*
X135250D01*
Y69674D01*
X140326Y74750D01*
X144000D01*
Y84750D01*
Y95250D01*
X140326D01*
X136913Y98663D01*
X135920Y99326D01*
X135250Y99459D01*
Y101500D01*
D02*
G37*
G36*
X165250Y64000D02*
X161000D01*
Y61785D01*
X159000D01*
Y64000D01*
X154750D01*
Y61000D01*
X156965D01*
Y59000D01*
X154750D01*
Y56000D01*
X159000D01*
Y58215D01*
X161000D01*
Y56000D01*
X165250D01*
Y59000D01*
X163035D01*
Y61000D01*
X165250D01*
Y64000D01*
D02*
G37*
G36*
X201646Y37500D02*
X198354D01*
X195175Y36648D01*
X192325Y35003D01*
X189998Y32675D01*
X188352Y29825D01*
X187500Y26646D01*
Y23354D01*
X188352Y20175D01*
X189998Y17325D01*
X192325Y14998D01*
X195175Y13352D01*
X198354Y12500D01*
X201646D01*
X204825Y13352D01*
X207675Y14998D01*
X210002Y17325D01*
X211648Y20175D01*
X212500Y23354D01*
Y26646D01*
X211648Y29825D01*
X210002Y32675D01*
X207675Y35003D01*
X204825Y36648D01*
X201646Y37500D01*
D02*
G37*
G36*
X-13354D02*
X-16646D01*
X-19825Y36648D01*
X-22675Y35003D01*
X-25003Y32675D01*
X-26648Y29825D01*
X-27500Y26646D01*
Y23354D01*
X-26648Y20175D01*
X-25003Y17325D01*
X-22675Y14998D01*
X-19825Y13352D01*
X-16646Y12500D01*
X-13354D01*
X-10175Y13352D01*
X-7325Y14998D01*
X-4997Y17325D01*
X-3352Y20175D01*
X-2500Y23354D01*
Y26646D01*
X-3352Y29825D01*
X-4997Y32675D01*
X-7325Y35003D01*
X-10175Y36648D01*
X-13354Y37500D01*
D02*
G37*
%LPD*%
D20*
X186035Y52536D02*
Y60000D01*
Y71065D01*
X186036Y60000D02*
X222500D01*
X186035Y60000D02*
X186036Y60000D01*
X222500D02*
X242500Y80000D01*
Y90000D01*
Y100000D02*
Y110000D01*
X225418D02*
X242500D01*
X225000Y109582D02*
X225418Y110000D01*
X147500Y130000D02*
X151500Y126000D01*
X159000D01*
X160000Y125000D01*
X132250Y46172D02*
Y59000D01*
X133422Y45000D02*
X178500D01*
X186035Y52536D01*
X132250Y46172D02*
X133422Y45000D01*
X179679Y122821D02*
X185079D01*
X161000Y134000D02*
X168500D01*
X185079Y122821D02*
X186035Y121865D01*
X168500Y134000D02*
X179679Y122821D01*
X160000Y135000D02*
X161000Y134000D01*
X160000Y135000D02*
Y145000D01*
X159000Y146000D02*
X160000Y145000D01*
X116500Y146000D02*
X159000D01*
X112500Y150000D02*
X116500Y146000D01*
X117500Y107500D02*
X130000D01*
X130000Y107500D01*
X112500Y82500D02*
X119990Y89990D01*
X121240D01*
X128750Y97500D01*
X131250Y60000D02*
X132250Y59000D01*
X130000Y60000D02*
X131250D01*
X128750Y97500D02*
X130000D01*
X131250Y70000D02*
X139000Y77750D01*
Y77750D02*
X140000Y78750D01*
X139000Y77750D02*
Y77750D01*
X62500Y50000D02*
X82500Y70000D01*
X131250D01*
X140000Y78750D02*
Y80000D01*
X130000Y97500D02*
X131000Y96500D01*
X134750D01*
X140000Y91250D01*
Y90000D02*
Y91250D01*
X160000Y92250D02*
Y97500D01*
Y92250D02*
X180350D01*
X184565Y96465D02*
X186035D01*
X180350Y92250D02*
X184565Y96465D01*
X151000Y92250D02*
X160000D01*
X150000Y91250D02*
X151000Y92250D01*
X150000Y90000D02*
Y91250D01*
X160000Y70000D02*
Y82250D01*
X184521D01*
X186035Y83764D01*
X151000Y82250D02*
X160000D01*
X150000Y81250D02*
X151000Y82250D01*
X150000Y80000D02*
Y81250D01*
D21*
X186035Y96465D02*
D03*
Y134565D02*
D03*
Y121865D02*
D03*
Y109164D02*
D03*
Y83764D02*
D03*
Y71065D02*
D03*
X-15000Y25000D02*
D03*
X200000Y175000D02*
D03*
Y25000D02*
D03*
D22*
X170000Y17500D02*
D03*
X167500Y182500D02*
D03*
X65000Y127500D02*
D03*
X82500Y185000D02*
D03*
X15000Y50000D02*
D03*
X225000Y109582D02*
D03*
X200000Y82500D02*
D03*
X202500Y120000D02*
D03*
X147500Y130000D02*
D03*
X175000Y102500D02*
D03*
X170000Y72500D02*
D03*
X145000Y57500D02*
D03*
X112500Y150000D02*
D03*
X117500Y107500D02*
D03*
X112500Y82500D02*
D03*
X62500Y50000D02*
D03*
D23*
X130000Y107500D02*
D03*
Y97500D02*
D03*
X242500Y90000D02*
D03*
Y100000D02*
D03*
X130000Y60000D02*
D03*
Y70000D02*
D03*
X160000Y125000D02*
D03*
Y135000D02*
D03*
Y145000D02*
D03*
Y155000D02*
D03*
Y97500D02*
D03*
Y107500D02*
D03*
Y70000D02*
D03*
Y60000D02*
D03*
X242500Y110000D02*
D03*
Y120000D02*
D03*
D24*
X140000Y90000D02*
D03*
X150000D02*
D03*
X140000Y80000D02*
D03*
X150000D02*
D03*
M02*
