G04*
G04 #@! TF.GenerationSoftware,Altium Limited,Altium Designer,25.8.1 (18)*
G04*
G04 Layer_Color=8388736*
%FSLAX44Y44*%
%MOMM*%
G71*
G04*
G04 #@! TF.SameCoordinates,DE4AE33E-2997-4D41-B439-913A94775957*
G04*
G04*
G04 #@! TF.FilePolarity,Negative*
G04*
G01*
G75*
G04:AMPARAMS|DCode=14|XSize=2.7032mm|YSize=3.4032mm|CornerRadius=0.3016mm|HoleSize=0mm|Usage=FLASHONLY|Rotation=180.000|XOffset=0mm|YOffset=0mm|HoleType=Round|Shape=RoundedRectangle|*
%AMROUNDEDRECTD14*
21,1,2.7032,2.8000,0,0,180.0*
21,1,2.1000,3.4032,0,0,180.0*
1,1,0.6032,-1.0500,1.4000*
1,1,0.6032,1.0500,1.4000*
1,1,0.6032,1.0500,-1.4000*
1,1,0.6032,-1.0500,-1.4000*
%
%ADD14ROUNDEDRECTD14*%
G04:AMPARAMS|DCode=15|XSize=1.5032mm|YSize=2.6032mm|CornerRadius=0.4266mm|HoleSize=0mm|Usage=FLASHONLY|Rotation=0.000|XOffset=0mm|YOffset=0mm|HoleType=Round|Shape=RoundedRectangle|*
%AMROUNDEDRECTD15*
21,1,1.5032,1.7500,0,0,0.0*
21,1,0.6500,2.6032,0,0,0.0*
1,1,0.8532,0.3250,-0.8750*
1,1,0.8532,-0.3250,-0.8750*
1,1,0.8532,-0.3250,0.8750*
1,1,0.8532,0.3250,0.8750*
%
%ADD15ROUNDEDRECTD15*%
G04:AMPARAMS|DCode=16|XSize=3.9532mm|YSize=4.2032mm|CornerRadius=0.3016mm|HoleSize=0mm|Usage=FLASHONLY|Rotation=180.000|XOffset=0mm|YOffset=0mm|HoleType=Round|Shape=RoundedRectangle|*
%AMROUNDEDRECTD16*
21,1,3.9532,3.6000,0,0,180.0*
21,1,3.3500,4.2032,0,0,180.0*
1,1,0.6032,-1.6750,1.8000*
1,1,0.6032,1.6750,1.8000*
1,1,0.6032,1.6750,-1.8000*
1,1,0.6032,-1.6750,-1.8000*
%
%ADD16ROUNDEDRECTD16*%
G04:AMPARAMS|DCode=17|XSize=1.8032mm|YSize=1.6032mm|CornerRadius=0.3016mm|HoleSize=0mm|Usage=FLASHONLY|Rotation=270.000|XOffset=0mm|YOffset=0mm|HoleType=Round|Shape=RoundedRectangle|*
%AMROUNDEDRECTD17*
21,1,1.8032,1.0000,0,0,270.0*
21,1,1.2000,1.6032,0,0,270.0*
1,1,0.6032,-0.5000,-0.6000*
1,1,0.6032,-0.5000,0.6000*
1,1,0.6032,0.5000,0.6000*
1,1,0.6032,0.5000,-0.6000*
%
%ADD17ROUNDEDRECTD17*%
%ADD18C,1.2032*%
%ADD19C,0.2032*%
D14*
X37500Y21000D02*
D03*
X137500D02*
D03*
X37500Y179000D02*
D03*
X137500D02*
D03*
D15*
X62500Y170000D02*
D03*
X112500D02*
D03*
X87500Y25000D02*
D03*
X112500D02*
D03*
X62500D02*
D03*
D16*
X151250Y100000D02*
D03*
X23750D02*
D03*
D17*
X205000Y143000D02*
D03*
X250000D02*
D03*
Y57000D02*
D03*
X205000D02*
D03*
D18*
X186035Y96465D02*
D03*
Y134565D02*
D03*
Y121865D02*
D03*
Y109164D02*
D03*
Y83764D02*
D03*
Y71065D02*
D03*
X-15000Y25000D02*
D03*
X200000Y175000D02*
D03*
Y25000D02*
D03*
D19*
X87500Y55000D02*
D03*
Y100000D02*
D03*
M02*
