G04*
G04 #@! TF.GenerationSoftware,Altium Limited,Altium Designer,25.8.1 (18)*
G04*
G04 Layer_Physical_Order=1*
G04 Layer_Color=255*
%FSLAX44Y44*%
%MOMM*%
G71*
G04*
G04 #@! TF.SameCoordinates,DE4AE33E-2997-4D41-B439-913A94775957*
G04*
G04*
G04 #@! TF.FilePolarity,Positive*
G04*
G01*
G75*
G04:AMPARAMS|DCode=10|XSize=2.5mm|YSize=3.2mm|CornerRadius=0.2mm|HoleSize=0mm|Usage=FLASHONLY|Rotation=180.000|XOffset=0mm|YOffset=0mm|HoleType=Round|Shape=RoundedRectangle|*
%AMROUNDEDRECTD10*
21,1,2.5000,2.8000,0,0,180.0*
21,1,2.1000,3.2000,0,0,180.0*
1,1,0.4000,-1.0500,1.4000*
1,1,0.4000,1.0500,1.4000*
1,1,0.4000,1.0500,-1.4000*
1,1,0.4000,-1.0500,-1.4000*
%
%ADD10ROUNDEDRECTD10*%
G04:AMPARAMS|DCode=11|XSize=1.3mm|YSize=2.4mm|CornerRadius=0.325mm|HoleSize=0mm|Usage=FLASHONLY|Rotation=0.000|XOffset=0mm|YOffset=0mm|HoleType=Round|Shape=RoundedRectangle|*
%AMROUNDEDRECTD11*
21,1,1.3000,1.7500,0,0,0.0*
21,1,0.6500,2.4000,0,0,0.0*
1,1,0.6500,0.3250,-0.8750*
1,1,0.6500,-0.3250,-0.8750*
1,1,0.6500,-0.3250,0.8750*
1,1,0.6500,0.3250,0.8750*
%
%ADD11ROUNDEDRECTD11*%
G04:AMPARAMS|DCode=12|XSize=3.75mm|YSize=4mm|CornerRadius=0.2mm|HoleSize=0mm|Usage=FLASHONLY|Rotation=180.000|XOffset=0mm|YOffset=0mm|HoleType=Round|Shape=RoundedRectangle|*
%AMROUNDEDRECTD12*
21,1,3.7500,3.6000,0,0,180.0*
21,1,3.3500,4.0000,0,0,180.0*
1,1,0.4000,-1.6750,1.8000*
1,1,0.4000,1.6750,1.8000*
1,1,0.4000,1.6750,-1.8000*
1,1,0.4000,-1.6750,-1.8000*
%
%ADD12ROUNDEDRECTD12*%
G04:AMPARAMS|DCode=13|XSize=1.6mm|YSize=1.4mm|CornerRadius=0.2mm|HoleSize=0mm|Usage=FLASHONLY|Rotation=270.000|XOffset=0mm|YOffset=0mm|HoleType=Round|Shape=RoundedRectangle|*
%AMROUNDEDRECTD13*
21,1,1.6000,1.0000,0,0,270.0*
21,1,1.2000,1.4000,0,0,270.0*
1,1,0.4000,-0.5000,-0.6000*
1,1,0.4000,-0.5000,0.6000*
1,1,0.4000,0.5000,0.6000*
1,1,0.4000,0.5000,-0.6000*
%
%ADD13ROUNDEDRECTD13*%
%ADD20C,0.2000*%
%ADD21C,1.0000*%
%ADD22C,0.5000*%
G36*
X222451Y170000D02*
X222392D01*
X222822Y166737D01*
X224081Y163696D01*
X226085Y161085D01*
X228696Y159081D01*
X231737Y157822D01*
X235000Y157392D01*
Y157451D01*
X262451D01*
Y42549D01*
X235000D01*
Y42608D01*
X231737Y42178D01*
X228696Y40919D01*
X226085Y38915D01*
X224081Y36304D01*
X222822Y33263D01*
X222392Y30000D01*
X222451D01*
Y24964D01*
X222469Y24874D01*
X222049Y20614D01*
X220770Y16397D01*
X218692Y12510D01*
X215897Y9103D01*
X212490Y6308D01*
X208603Y4230D01*
X204386Y2951D01*
X201934Y2709D01*
X200000Y2549D01*
X200000Y2549D01*
X198034Y2549D01*
X152059D01*
X151698Y3031D01*
X151173Y4549D01*
X151768Y5439D01*
X152078Y7000D01*
Y20000D01*
X149785D01*
Y22000D01*
X152078D01*
Y35000D01*
X151768Y36561D01*
X151450Y37036D01*
X149780Y35366D01*
X148366Y36780D01*
X150036Y38450D01*
X149561Y38768D01*
X148000Y39078D01*
X138500D01*
Y36785D01*
X136500D01*
Y39078D01*
X127000D01*
X125439Y38768D01*
X124964Y38450D01*
X126634Y36780D01*
X125220Y35366D01*
X123550Y37036D01*
X123232Y36561D01*
X122922Y35000D01*
Y34858D01*
X120922Y34661D01*
X120695Y35798D01*
X119535Y37535D01*
X117798Y38695D01*
X115750Y39103D01*
X115559D01*
Y79195D01*
X116315Y79951D01*
X117000Y81605D01*
Y83395D01*
X116315Y85049D01*
X115049Y86315D01*
X113395Y87000D01*
X111605D01*
X109951Y86315D01*
X108685Y85049D01*
X108000Y83395D01*
Y81605D01*
X108685Y79951D01*
X109441Y79195D01*
Y39103D01*
X109250D01*
X107202Y38695D01*
X105465Y37535D01*
X104305Y35798D01*
X103897Y33750D01*
Y16250D01*
X104305Y14202D01*
X105465Y12465D01*
X107202Y11305D01*
X109250Y10897D01*
X115750D01*
X117798Y11305D01*
X119535Y12465D01*
X120695Y14202D01*
X120922Y15339D01*
X122922Y15142D01*
Y7000D01*
X123232Y5439D01*
X123827Y4549D01*
X123302Y3031D01*
X122941Y2549D01*
X52059D01*
X51698Y3031D01*
X51173Y4549D01*
X51768Y5439D01*
X52078Y7000D01*
Y15142D01*
X54078Y15339D01*
X54305Y14202D01*
X55465Y12465D01*
X57202Y11305D01*
X59250Y10897D01*
X65750D01*
X67798Y11305D01*
X69535Y12465D01*
X70695Y14202D01*
X71103Y16250D01*
Y33750D01*
X70695Y35798D01*
X69535Y37535D01*
X67798Y38695D01*
X65750Y39103D01*
X65559D01*
Y46695D01*
X66315Y47451D01*
X67000Y49105D01*
Y50895D01*
X66315Y52549D01*
X65049Y53815D01*
X63395Y54500D01*
X61605D01*
X59951Y53815D01*
X58685Y52549D01*
X58000Y50895D01*
Y49105D01*
X58685Y47451D01*
X59441Y46695D01*
Y39103D01*
X59250D01*
X57202Y38695D01*
X55465Y37535D01*
X54305Y35798D01*
X54078Y34661D01*
X52078Y34858D01*
Y35000D01*
X51768Y36561D01*
X51450Y37036D01*
X49780Y35366D01*
X48366Y36780D01*
X50036Y38450D01*
X49561Y38768D01*
X48000Y39078D01*
X38500D01*
Y36785D01*
X36500D01*
Y39078D01*
X27000D01*
X25439Y38768D01*
X24964Y38450D01*
X26634Y36780D01*
X25220Y35366D01*
X23550Y37036D01*
X23232Y36561D01*
X22922Y35000D01*
Y22000D01*
X25215D01*
Y20000D01*
X22922D01*
Y7000D01*
X23232Y5439D01*
X23827Y4549D01*
X23302Y3031D01*
X22941Y2549D01*
X0D01*
X-0Y2549D01*
X-15000D01*
X-15102Y2529D01*
X-19386Y2951D01*
X-23603Y4230D01*
X-27490Y6308D01*
X-30897Y9103D01*
X-33693Y12510D01*
X-35770Y16397D01*
X-37049Y20614D01*
X-37481Y25000D01*
X-37049Y29386D01*
X-35770Y33603D01*
X-33693Y37490D01*
X-30897Y40897D01*
X-27490Y43692D01*
X-23603Y45770D01*
X-19386Y47049D01*
X-15102Y47471D01*
X-15000Y47451D01*
X-10000D01*
Y47392D01*
X-6737Y47822D01*
X-3696Y49081D01*
X-1085Y51085D01*
X919Y53696D01*
X2178Y56737D01*
X2608Y60000D01*
X2549D01*
Y77941D01*
X3031Y78302D01*
X4549Y78827D01*
X5439Y78232D01*
X7000Y77922D01*
X22750D01*
Y80215D01*
X24750D01*
Y77922D01*
X40500D01*
X42061Y78232D01*
X42536Y78550D01*
X40866Y80220D01*
X42280Y81634D01*
X43950Y79964D01*
X44268Y80439D01*
X44578Y82000D01*
Y99000D01*
X42285D01*
Y101000D01*
X44578D01*
Y118000D01*
X44268Y119561D01*
X43950Y120036D01*
X42280Y118366D01*
X40866Y119780D01*
X42536Y121450D01*
X42061Y121768D01*
X40500Y122078D01*
X24750D01*
Y119785D01*
X22750D01*
Y122078D01*
X7000D01*
X5439Y121768D01*
X4549Y121173D01*
X3031Y121698D01*
X2549Y122059D01*
Y159451D01*
X10000D01*
Y159392D01*
X13263Y159822D01*
X16304Y161081D01*
X18915Y163085D01*
X20919Y165696D01*
X20922Y165703D01*
X22922Y165305D01*
Y165000D01*
X23232Y163439D01*
X23550Y162964D01*
X25220Y164634D01*
X26634Y163220D01*
X24964Y161550D01*
X25439Y161232D01*
X27000Y160922D01*
X36500D01*
Y163215D01*
X38500D01*
Y160922D01*
X48000D01*
X49561Y161232D01*
X50036Y161550D01*
X48366Y163220D01*
X49780Y164634D01*
X51450Y162964D01*
X51768Y163439D01*
X51897Y164089D01*
X53897Y163892D01*
Y161250D01*
X54305Y159202D01*
X54899Y158313D01*
X56508Y159922D01*
X57922Y158508D01*
X56313Y156898D01*
X57202Y156305D01*
X59250Y155897D01*
X61500D01*
Y158215D01*
X63500D01*
Y155897D01*
X65750D01*
X67798Y156305D01*
X68687Y156898D01*
X67078Y158508D01*
X68492Y159922D01*
X70101Y158313D01*
X70695Y159202D01*
X71103Y161250D01*
Y169000D01*
X68785D01*
Y171000D01*
X71103D01*
Y178750D01*
X70695Y180798D01*
X70101Y181687D01*
X68492Y180078D01*
X67078Y181492D01*
X68687Y183102D01*
X67798Y183695D01*
X65750Y184103D01*
X63500D01*
Y181785D01*
X61500D01*
Y184103D01*
X59250D01*
X57202Y183695D01*
X56313Y183102D01*
X57922Y181492D01*
X56508Y180078D01*
X54899Y181687D01*
X54305Y180798D01*
X54078Y179661D01*
X52078Y179858D01*
Y193000D01*
X51768Y194561D01*
X51173Y195451D01*
X51698Y196969D01*
X52059Y197451D01*
X122941D01*
X123302Y196969D01*
X123827Y195451D01*
X123232Y194561D01*
X122922Y193000D01*
Y179858D01*
X120922Y179661D01*
X120695Y180798D01*
X119535Y182535D01*
X117798Y183695D01*
X115750Y184103D01*
X109250D01*
X107202Y183695D01*
X105465Y182535D01*
X104305Y180798D01*
X103897Y178750D01*
Y161250D01*
X104305Y159202D01*
X105465Y157465D01*
X107202Y156305D01*
X109250Y155897D01*
X109441D01*
Y153305D01*
X108685Y152549D01*
X108000Y150895D01*
Y149105D01*
X108685Y147451D01*
X109951Y146185D01*
X111605Y145500D01*
X113395D01*
X115049Y146185D01*
X116315Y147451D01*
X117000Y149105D01*
Y150895D01*
X116315Y152549D01*
X115559Y153305D01*
Y155897D01*
X115750D01*
X117798Y156305D01*
X119535Y157465D01*
X120695Y159202D01*
X121103Y161250D01*
Y163892D01*
X123103Y164089D01*
X123232Y163439D01*
X123550Y162964D01*
X125220Y164634D01*
X126634Y163220D01*
X124964Y161550D01*
X125439Y161232D01*
X127000Y160922D01*
X136500D01*
Y163215D01*
X138500D01*
Y160922D01*
X148000D01*
X149561Y161232D01*
X150036Y161550D01*
X148366Y163220D01*
X149780Y164634D01*
X151450Y162964D01*
X151768Y163439D01*
X152078Y165000D01*
Y178000D01*
X149785D01*
Y180000D01*
X152078D01*
Y193000D01*
X151768Y194561D01*
X151173Y195451D01*
X151698Y196969D01*
X152059Y197451D01*
X222451D01*
Y170000D01*
D02*
G37*
%LPC*%
G36*
X201646Y187500D02*
X198354D01*
X195175Y186648D01*
X192325Y185002D01*
X189998Y182675D01*
X188352Y179825D01*
X187500Y176646D01*
Y173354D01*
X188352Y170175D01*
X189998Y167325D01*
X192325Y164998D01*
X195175Y163352D01*
X198354Y162500D01*
X201646D01*
X204825Y163352D01*
X207675Y164998D01*
X210002Y167325D01*
X211648Y170175D01*
X212500Y173354D01*
Y176646D01*
X211648Y179825D01*
X210002Y182675D01*
X207675Y185002D01*
X204825Y186648D01*
X201646Y187500D01*
D02*
G37*
G36*
X255000Y153078D02*
X251000D01*
Y150785D01*
X249000D01*
Y153078D01*
X245000D01*
X243439Y152768D01*
X242964Y152450D01*
X244634Y150780D01*
X243220Y149366D01*
X241550Y151036D01*
X241232Y150561D01*
X240922Y149000D01*
Y144000D01*
X243215D01*
Y142000D01*
X240922D01*
Y137000D01*
X241232Y135439D01*
X241550Y134964D01*
X243220Y136634D01*
X244634Y135220D01*
X242964Y133550D01*
X243439Y133232D01*
X245000Y132922D01*
X249000D01*
Y135215D01*
X251000D01*
Y132922D01*
X255000D01*
X256561Y133232D01*
X257036Y133550D01*
X255366Y135220D01*
X256780Y136634D01*
X258450Y134964D01*
X258768Y135439D01*
X259078Y137000D01*
Y142000D01*
X256785D01*
Y144000D01*
X259078D01*
Y149000D01*
X258768Y150561D01*
X258450Y151036D01*
X256780Y149366D01*
X255366Y150780D01*
X257036Y152450D01*
X256561Y152768D01*
X255000Y153078D01*
D02*
G37*
G36*
X210000D02*
X200000D01*
X198439Y152768D01*
X197116Y151884D01*
X196232Y150561D01*
X195922Y149000D01*
Y137000D01*
X196232Y135439D01*
X197116Y134116D01*
X198439Y133232D01*
X200000Y132922D01*
X209753D01*
X221941Y120733D01*
Y112887D01*
X221486Y112432D01*
X192232D01*
X191637Y113462D01*
X190849Y114251D01*
X190525Y115514D01*
X190849Y116778D01*
X191637Y117566D01*
X192558Y119163D01*
X193036Y120943D01*
Y122786D01*
X192558Y124566D01*
X191637Y126163D01*
X190849Y126951D01*
X190525Y128215D01*
X190616Y128570D01*
X188641Y130545D01*
X190055Y131959D01*
X191677Y130337D01*
X192558Y131863D01*
X193036Y133643D01*
Y135486D01*
X192558Y137266D01*
X191677Y138792D01*
X190055Y137170D01*
X188641Y138584D01*
X190263Y140206D01*
X188737Y141087D01*
X186957Y141564D01*
X185114D01*
X183334Y141087D01*
X181808Y140206D01*
X183430Y138584D01*
X182016Y137170D01*
X180394Y138792D01*
X179513Y137266D01*
X179036Y135486D01*
Y133643D01*
X179513Y131863D01*
X180394Y130337D01*
X182016Y131959D01*
X183430Y130545D01*
X181455Y128570D01*
X181546Y128215D01*
X181222Y126951D01*
X180434Y126163D01*
X179513Y124566D01*
X179036Y122786D01*
Y120943D01*
X179513Y119163D01*
X180434Y117566D01*
X181222Y116778D01*
X181546Y115514D01*
X181222Y114251D01*
X180434Y113462D01*
X179513Y111866D01*
X179036Y110086D01*
Y108243D01*
X179513Y106463D01*
X180434Y104866D01*
X181222Y104078D01*
X181546Y102815D01*
X181222Y101551D01*
X180434Y100763D01*
X179513Y99166D01*
X179036Y97386D01*
Y95543D01*
X179513Y93763D01*
X180434Y92166D01*
X181222Y91378D01*
X181546Y90114D01*
X181222Y88851D01*
X180434Y88062D01*
X179513Y86466D01*
X179036Y84686D01*
Y82843D01*
X179513Y81063D01*
X180434Y79466D01*
X181222Y78678D01*
X181546Y77414D01*
X181222Y76151D01*
X180434Y75363D01*
X179513Y73766D01*
X179036Y71986D01*
Y70143D01*
X179513Y68363D01*
X180434Y66766D01*
X181737Y65463D01*
X183334Y64542D01*
X185114Y64064D01*
X186957D01*
X188737Y64542D01*
X190334Y65463D01*
X191637Y66766D01*
X192558Y68363D01*
X193036Y70143D01*
Y71986D01*
X192558Y73766D01*
X191637Y75363D01*
X190849Y76151D01*
X190525Y77414D01*
X190849Y78678D01*
X191637Y79466D01*
X192558Y81063D01*
X193036Y82843D01*
Y84686D01*
X192558Y86466D01*
X191637Y88062D01*
X190849Y88851D01*
X190525Y90114D01*
X190849Y91378D01*
X191637Y92166D01*
X192558Y93763D01*
X193036Y95543D01*
Y97386D01*
X192558Y99166D01*
X191637Y100763D01*
X190849Y101551D01*
X190525Y102815D01*
X190849Y104078D01*
X191637Y104866D01*
X192473Y106314D01*
X214793D01*
X215559Y104467D01*
X206837Y95745D01*
X206174Y94753D01*
X205941Y93582D01*
X205941Y93582D01*
Y67078D01*
X200000D01*
X198439Y66768D01*
X197116Y65884D01*
X196232Y64561D01*
X195922Y63000D01*
Y51000D01*
X196232Y49439D01*
X197116Y48116D01*
X198439Y47232D01*
X200000Y46922D01*
X210000D01*
X211561Y47232D01*
X212884Y48116D01*
X213768Y49439D01*
X214078Y51000D01*
Y63000D01*
X213768Y64561D01*
X212884Y65884D01*
X212059Y66435D01*
Y92315D01*
X224826Y105082D01*
X225895D01*
X227549Y105767D01*
X228815Y107033D01*
X229500Y108687D01*
Y110477D01*
X228815Y112131D01*
X228059Y112887D01*
Y122000D01*
X228059Y122000D01*
X227826Y123170D01*
X227163Y124163D01*
X227163Y124163D01*
X214078Y137247D01*
Y149000D01*
X213768Y150561D01*
X212884Y151884D01*
X211561Y152768D01*
X210000Y153078D01*
D02*
G37*
G36*
X148395Y134500D02*
X146605D01*
X144951Y133815D01*
X143685Y132549D01*
X143000Y130895D01*
Y129105D01*
X143685Y127451D01*
X144951Y126185D01*
X146605Y125500D01*
X148395D01*
X150049Y126185D01*
X151315Y127451D01*
X152000Y129105D01*
Y130895D01*
X151315Y132549D01*
X150049Y133815D01*
X148395Y134500D01*
D02*
G37*
G36*
X168000Y122078D02*
X152250D01*
Y119785D01*
X150250D01*
Y122078D01*
X134500D01*
X132939Y121768D01*
X132464Y121450D01*
X134134Y119780D01*
X132720Y118366D01*
X131050Y120036D01*
X130732Y119561D01*
X130422Y118000D01*
Y101000D01*
X132715D01*
Y99000D01*
X130422D01*
Y82000D01*
X130732Y80439D01*
X131050Y79964D01*
X132720Y81634D01*
X134134Y80220D01*
X132464Y78550D01*
X132939Y78232D01*
X134500Y77922D01*
X150250D01*
Y80215D01*
X152250D01*
Y77922D01*
X168000D01*
X169561Y78232D01*
X170036Y78550D01*
X168366Y80220D01*
X169780Y81634D01*
X171450Y79964D01*
X171768Y80439D01*
X172078Y82000D01*
Y99000D01*
X169785D01*
Y101000D01*
X172078D01*
Y118000D01*
X171768Y119561D01*
X171450Y120036D01*
X169780Y118366D01*
X168366Y119780D01*
X170036Y121450D01*
X169561Y121768D01*
X168000Y122078D01*
D02*
G37*
G36*
X118395Y112000D02*
X116605D01*
X114951Y111315D01*
X113685Y110049D01*
X113000Y108395D01*
Y106605D01*
X113685Y104951D01*
X114951Y103685D01*
X116605Y103000D01*
X118395D01*
X120049Y103685D01*
X121315Y104951D01*
X122000Y106605D01*
Y108395D01*
X121315Y110049D01*
X120049Y111315D01*
X118395Y112000D01*
D02*
G37*
G36*
X89113Y112250D02*
X85887D01*
X82772Y111415D01*
X79978Y109802D01*
X77698Y107522D01*
X76085Y104728D01*
X75250Y101613D01*
Y98387D01*
X76085Y95272D01*
X77698Y92478D01*
X79978Y90198D01*
X82772Y88585D01*
X85887Y87750D01*
X89113D01*
X92228Y88585D01*
X95022Y90198D01*
X97302Y92478D01*
X98915Y95272D01*
X99750Y98387D01*
Y101613D01*
X98915Y104728D01*
X97302Y107522D01*
X95022Y109802D01*
X92228Y111415D01*
X89113Y112250D01*
D02*
G37*
G36*
X255000Y67078D02*
X251000D01*
Y64785D01*
X249000D01*
Y67078D01*
X245000D01*
X243439Y66768D01*
X242964Y66450D01*
X244634Y64780D01*
X243220Y63366D01*
X241550Y65036D01*
X241232Y64561D01*
X240922Y63000D01*
Y58000D01*
X243215D01*
Y56000D01*
X240922D01*
Y51000D01*
X241232Y49439D01*
X241550Y48964D01*
X243220Y50634D01*
X244634Y49220D01*
X242964Y47550D01*
X243439Y47232D01*
X245000Y46922D01*
X249000D01*
Y49215D01*
X251000D01*
Y46922D01*
X255000D01*
X256561Y47232D01*
X257036Y47550D01*
X255366Y49220D01*
X256780Y50634D01*
X258450Y48964D01*
X258768Y49439D01*
X259078Y51000D01*
Y56000D01*
X256785D01*
Y58000D01*
X259078D01*
Y63000D01*
X258768Y64561D01*
X258450Y65036D01*
X256780Y63366D01*
X255366Y64780D01*
X257036Y66450D01*
X256561Y66768D01*
X255000Y67078D01*
D02*
G37*
G36*
X87500Y68084D02*
X84955Y67749D01*
X82583Y66767D01*
X80546Y65204D01*
X78983Y63167D01*
X78001Y60795D01*
X77666Y58250D01*
Y51750D01*
X78001Y49205D01*
X78983Y46833D01*
X80546Y44796D01*
X82583Y43233D01*
X84955Y42251D01*
X87500Y41916D01*
X90045Y42251D01*
X92417Y43233D01*
X94454Y44796D01*
X96017Y46833D01*
X96999Y49205D01*
X97334Y51750D01*
Y58250D01*
X96999Y60795D01*
X96017Y63167D01*
X94454Y65204D01*
X92417Y66767D01*
X90045Y67749D01*
X87500Y68084D01*
D02*
G37*
G36*
X90750Y39103D02*
X88500D01*
Y36785D01*
X86500D01*
Y39103D01*
X84250D01*
X82202Y38695D01*
X81313Y38101D01*
X82922Y36492D01*
X81508Y35078D01*
X79899Y36687D01*
X79305Y35798D01*
X78897Y33750D01*
Y26000D01*
X81215D01*
Y24000D01*
X78897D01*
Y16250D01*
X79305Y14202D01*
X79899Y13313D01*
X81508Y14922D01*
X82922Y13508D01*
X81313Y11898D01*
X82202Y11305D01*
X84250Y10897D01*
X86500D01*
Y13215D01*
X88500D01*
Y10897D01*
X90750D01*
X92798Y11305D01*
X93687Y11898D01*
X92078Y13508D01*
X93492Y14922D01*
X95101Y13313D01*
X95695Y14202D01*
X96103Y16250D01*
Y24000D01*
X93785D01*
Y26000D01*
X96103D01*
Y33750D01*
X95695Y35798D01*
X95101Y36687D01*
X93492Y35078D01*
X92078Y36492D01*
X93687Y38101D01*
X92798Y38695D01*
X90750Y39103D01*
D02*
G37*
G36*
X201646Y37500D02*
X198354D01*
X195175Y36648D01*
X192325Y35003D01*
X189998Y32675D01*
X188352Y29825D01*
X187500Y26646D01*
Y23354D01*
X188352Y20175D01*
X189998Y17325D01*
X192325Y14998D01*
X195175Y13352D01*
X198354Y12500D01*
X201646D01*
X204825Y13352D01*
X207675Y14998D01*
X210002Y17325D01*
X211648Y20175D01*
X212500Y23354D01*
Y26646D01*
X211648Y29825D01*
X210002Y32675D01*
X207675Y35003D01*
X204825Y36648D01*
X201646Y37500D01*
D02*
G37*
G36*
X-13354D02*
X-16646D01*
X-19825Y36648D01*
X-22675Y35003D01*
X-25003Y32675D01*
X-26648Y29825D01*
X-27500Y26646D01*
Y23354D01*
X-26648Y20175D01*
X-25003Y17325D01*
X-22675Y14998D01*
X-19825Y13352D01*
X-16646Y12500D01*
X-13354D01*
X-10175Y13352D01*
X-7325Y14998D01*
X-4997Y17325D01*
X-3352Y20175D01*
X-2500Y23354D01*
Y26646D01*
X-3352Y29825D01*
X-4997Y32675D01*
X-7325Y35003D01*
X-10175Y36648D01*
X-13354Y37500D01*
D02*
G37*
%LPD*%
D10*
X37500Y21000D02*
D03*
X137500D02*
D03*
X37500Y179000D02*
D03*
X137500D02*
D03*
D11*
X62500Y170000D02*
D03*
X112500D02*
D03*
X87500Y25000D02*
D03*
X112500D02*
D03*
X62500D02*
D03*
D12*
X151250Y100000D02*
D03*
X23750D02*
D03*
D13*
X205000Y143000D02*
D03*
X250000D02*
D03*
Y57000D02*
D03*
X205000D02*
D03*
D20*
X224791Y109373D02*
X225000Y109582D01*
X186244Y109373D02*
X224791D01*
X186035Y109164D02*
X186244Y109373D01*
X205000Y57000D02*
X209000Y61000D01*
X205000Y142000D02*
X225000Y122000D01*
Y109582D02*
Y122000D01*
X209000Y93582D02*
X225000Y109582D01*
X205000Y142000D02*
Y143000D01*
X209000Y61000D02*
Y93582D01*
X112500Y150000D02*
Y170000D01*
Y25000D02*
Y82500D01*
X62500Y25000D02*
Y50000D01*
D21*
X186035Y96465D02*
D03*
Y134565D02*
D03*
Y121865D02*
D03*
Y109164D02*
D03*
Y83764D02*
D03*
Y71065D02*
D03*
X-15000Y25000D02*
D03*
X200000Y175000D02*
D03*
Y25000D02*
D03*
D22*
X170000Y17500D02*
D03*
X167500Y182500D02*
D03*
X65000Y127500D02*
D03*
X82500Y185000D02*
D03*
X15000Y50000D02*
D03*
X225000Y109582D02*
D03*
X200000Y82500D02*
D03*
X202500Y120000D02*
D03*
X147500Y130000D02*
D03*
X175000Y102500D02*
D03*
X170000Y72500D02*
D03*
X145000Y57500D02*
D03*
X112500Y150000D02*
D03*
X117500Y107500D02*
D03*
X112500Y82500D02*
D03*
X62500Y50000D02*
D03*
M02*
