G04*
G04 #@! TF.GenerationSoftware,Altium Limited,Altium Designer,25.8.1 (18)*
G04*
G04 Layer_Physical_Order=1*
G04 Layer_Color=255*
%FSLAX44Y44*%
%MOMM*%
G71*
G04*
G04 #@! TF.SameCoordinates,10C7A1AC-A1A7-45AE-8E0E-EF82A9A0A354*
G04*
G04*
G04 #@! TF.FilePolarity,Positive*
G04*
G01*
G75*
G04:AMPARAMS|DCode=10|XSize=0.6mm|YSize=0.7mm|CornerRadius=0.15mm|HoleSize=0mm|Usage=FLASHONLY|Rotation=270.000|XOffset=0mm|YOffset=0mm|HoleType=Round|Shape=RoundedRectangle|*
%AMROUNDEDRECTD10*
21,1,0.6000,0.4000,0,0,270.0*
21,1,0.3000,0.7000,0,0,270.0*
1,1,0.3000,-0.2000,-0.1500*
1,1,0.3000,-0.2000,0.1500*
1,1,0.3000,0.2000,0.1500*
1,1,0.3000,0.2000,-0.1500*
%
%ADD10ROUNDEDRECTD10*%
G04:AMPARAMS|DCode=11|XSize=0.9mm|YSize=1.7mm|CornerRadius=0.225mm|HoleSize=0mm|Usage=FLASHONLY|Rotation=0.000|XOffset=0mm|YOffset=0mm|HoleType=Round|Shape=RoundedRectangle|*
%AMROUNDEDRECTD11*
21,1,0.9000,1.2500,0,0,0.0*
21,1,0.4500,1.7000,0,0,0.0*
1,1,0.4500,0.2250,-0.6250*
1,1,0.4500,-0.2250,-0.6250*
1,1,0.4500,-0.2250,0.6250*
1,1,0.4500,0.2250,0.6250*
%
%ADD11ROUNDEDRECTD11*%
%ADD15C,0.2000*%
%ADD16C,1.0000*%
%ADD17C,0.5000*%
G36*
X31359Y92923D02*
X32186Y91686D01*
X33592Y90747D01*
X34441Y90578D01*
Y21422D01*
X33592Y21253D01*
X32186Y20314D01*
X31359Y19077D01*
X30300Y18975D01*
X29241Y19077D01*
X28414Y20314D01*
X27008Y21253D01*
X25350Y21583D01*
X20850D01*
X19192Y21253D01*
X17786Y20314D01*
X16959Y19077D01*
X15900Y18975D01*
X14841Y19077D01*
X14014Y20314D01*
X12608Y21253D01*
X10950Y21583D01*
X6450D01*
X4792Y21253D01*
X3386Y20314D01*
X2447Y18908D01*
X2117Y17250D01*
Y4750D01*
X2157Y4549D01*
X587Y2549D01*
X-5000D01*
X-5000Y2549D01*
X-15000D01*
X-15102Y2529D01*
X-19386Y2951D01*
X-23603Y4230D01*
X-27490Y6308D01*
X-30897Y9103D01*
X-33693Y12510D01*
X-35770Y16397D01*
X-37049Y20614D01*
X-37481Y25000D01*
X-37049Y29386D01*
X-35770Y33603D01*
X-33693Y37490D01*
X-30897Y40897D01*
X-27490Y43692D01*
X-23603Y45770D01*
X-19386Y47049D01*
X-15102Y47471D01*
X-15000Y47451D01*
X-10000D01*
Y47392D01*
X-6737Y47822D01*
X-3696Y49081D01*
X-1085Y51085D01*
X919Y53696D01*
X2178Y56737D01*
X2608Y60000D01*
X2549D01*
Y89840D01*
X4549Y90909D01*
X4792Y90747D01*
X6450Y90417D01*
X10950D01*
X12608Y90747D01*
X14014Y91686D01*
X14841Y92923D01*
X15900Y93025D01*
X16959Y92923D01*
X17786Y91686D01*
X19192Y90747D01*
X20850Y90417D01*
X25350D01*
X27008Y90747D01*
X28414Y91686D01*
X29241Y92923D01*
X30300Y93025D01*
X31359Y92923D01*
D02*
G37*
G36*
X60159D02*
X60986Y91686D01*
X62392Y90747D01*
X64050Y90417D01*
X68550D01*
X70208Y90747D01*
X71614Y91686D01*
X73386D01*
X74792Y90747D01*
X75506Y89410D01*
X75500Y89395D01*
Y87605D01*
X76185Y85951D01*
X77451Y84685D01*
X79105Y84000D01*
X80895D01*
X82549Y84685D01*
X83815Y85951D01*
X84500Y87605D01*
Y89395D01*
X84202Y90115D01*
X84381Y90761D01*
X84876Y91402D01*
X87152Y91484D01*
X87451Y91185D01*
X89105Y90500D01*
X90432D01*
X90850Y90417D01*
X93763D01*
X94427Y89332D01*
X94673Y88417D01*
X94174Y87671D01*
X93941Y86500D01*
X93941Y86500D01*
Y49000D01*
X93941Y49000D01*
X94174Y47829D01*
X94837Y46837D01*
X103000Y38674D01*
Y37605D01*
X103685Y35951D01*
X104441Y35195D01*
Y21422D01*
X103592Y21253D01*
X102186Y20314D01*
X101359Y19077D01*
X100300Y18975D01*
X99241Y19077D01*
X98414Y20314D01*
X97008Y21253D01*
X95350Y21583D01*
X90850D01*
X89192Y21253D01*
X87786Y20314D01*
X86959Y19077D01*
X85900Y18975D01*
X84841Y19077D01*
X84014Y20314D01*
X83868Y20412D01*
X83815Y20951D01*
X84500Y22605D01*
Y24395D01*
X83815Y26049D01*
X82549Y27315D01*
X80895Y28000D01*
X79105D01*
X77451Y27315D01*
X76185Y26049D01*
X75500Y24395D01*
Y22605D01*
X75506Y22590D01*
X74792Y21253D01*
X73386Y20314D01*
X71614D01*
X70208Y21253D01*
X68550Y21583D01*
X64050D01*
X62392Y21253D01*
X60986Y20314D01*
X60159Y19077D01*
X59100Y18975D01*
X58041Y19077D01*
X57214Y20314D01*
X55808Y21253D01*
X54150Y21583D01*
X49650D01*
X47992Y21253D01*
X46586Y20314D01*
X45759Y19077D01*
X44700Y18975D01*
X43641Y19077D01*
X42814Y20314D01*
X41408Y21253D01*
X40559Y21422D01*
Y90578D01*
X41408Y90747D01*
X42814Y91686D01*
X43641Y92923D01*
X44700Y93025D01*
X45759Y92923D01*
X46586Y91686D01*
X47992Y90747D01*
X49650Y90417D01*
X54150D01*
X55808Y90747D01*
X57214Y91686D01*
X58041Y92923D01*
X59100Y93025D01*
X60159Y92923D01*
D02*
G37*
G36*
X171359D02*
X172186Y91686D01*
X173592Y90747D01*
X175250Y90417D01*
X179750D01*
X180404Y88628D01*
Y51559D01*
X174722D01*
X174722Y51559D01*
X173551Y51326D01*
X172559Y50663D01*
X162337Y40441D01*
X161674Y39449D01*
X161441Y38278D01*
X161441Y38278D01*
Y36790D01*
X157674Y33023D01*
X156605D01*
X154951Y32338D01*
X153685Y31072D01*
X153000Y29418D01*
Y27628D01*
X153685Y25974D01*
X154517Y25142D01*
X151587Y22213D01*
X150895Y22500D01*
X149105D01*
X147451Y21815D01*
X147219Y21583D01*
X146450D01*
X144792Y21253D01*
X143824Y20607D01*
X142500Y20431D01*
X141176Y20607D01*
X140208Y21253D01*
X139359Y21422D01*
Y48533D01*
X164826Y74000D01*
X165895D01*
X167333Y74596D01*
X167549Y74685D01*
X168685Y73188D01*
X168640Y73080D01*
X168000Y71534D01*
Y69744D01*
X168685Y68090D01*
X169951Y66824D01*
X171605Y66139D01*
X173395D01*
X175049Y66824D01*
X176315Y68090D01*
X177000Y69744D01*
Y71534D01*
X176315Y73188D01*
X175049Y74454D01*
X173395Y75139D01*
X171605D01*
X170167Y74543D01*
X169951Y74454D01*
X168815Y75951D01*
X168860Y76059D01*
X169500Y77605D01*
Y79395D01*
X168815Y81049D01*
X167549Y82315D01*
X165895Y83000D01*
X164105D01*
X162451Y82315D01*
X161185Y81049D01*
X160500Y79395D01*
Y78326D01*
X134137Y51963D01*
X133474Y50971D01*
X133241Y49800D01*
X133241Y49800D01*
Y21422D01*
X132392Y21253D01*
X130986Y20314D01*
X130159Y19077D01*
X129100Y18975D01*
X128041Y19077D01*
X127214Y20314D01*
X125808Y21253D01*
X124150Y21583D01*
X119650D01*
X117992Y21253D01*
X116586Y20314D01*
X115759Y19077D01*
X114700Y18975D01*
X113641Y19077D01*
X112814Y20314D01*
X111408Y21253D01*
X110559Y21422D01*
Y35195D01*
X111315Y35951D01*
X112000Y37605D01*
Y39395D01*
X111315Y41049D01*
X110049Y42315D01*
X108395Y43000D01*
X107326D01*
X100059Y50267D01*
Y85233D01*
X105244Y90418D01*
X105250Y90417D01*
X109750D01*
X111408Y90747D01*
X112814Y91686D01*
X113641Y92923D01*
X114700Y93025D01*
X115759Y92923D01*
X116586Y91686D01*
X116699Y89524D01*
X115174Y88000D01*
X114105D01*
X112451Y87315D01*
X111185Y86049D01*
X110500Y84395D01*
Y82605D01*
X111185Y80951D01*
X112451Y79685D01*
X114105Y79000D01*
X115895D01*
X117549Y79685D01*
X118815Y80951D01*
X119500Y82605D01*
Y83674D01*
X121270Y85444D01*
X122858Y84481D01*
X123000Y84346D01*
Y82605D01*
X123685Y80951D01*
X124951Y79685D01*
X126605Y79000D01*
X128395D01*
X130049Y79685D01*
X131315Y80951D01*
X132000Y82605D01*
Y84395D01*
X131315Y86049D01*
X130049Y87315D01*
X128395Y88000D01*
X126605D01*
X125019Y87343D01*
X124668Y87485D01*
X123185Y88378D01*
X123247Y88688D01*
X124029Y90417D01*
X124150D01*
X125808Y90747D01*
X127214Y91686D01*
X128041Y92923D01*
X129100Y93025D01*
X130159Y92923D01*
X130986Y91686D01*
X132392Y90747D01*
X134050Y90417D01*
X138550D01*
X140208Y90747D01*
X141176Y91393D01*
X142500Y91569D01*
X143824Y91393D01*
X144792Y90747D01*
X146450Y90417D01*
X150950D01*
X151081Y90443D01*
X153000Y88524D01*
Y87605D01*
X153685Y85951D01*
X154951Y84685D01*
X156605Y84000D01*
X158395D01*
X160049Y84685D01*
X161315Y85951D01*
X162000Y87605D01*
Y89395D01*
X162683Y90417D01*
X165350D01*
X167008Y90747D01*
X168414Y91686D01*
X169241Y92923D01*
X170300Y93025D01*
X171359Y92923D01*
D02*
G37*
G36*
X376886Y109049D02*
X381103Y107770D01*
X384990Y105693D01*
X388397Y102897D01*
X391193Y99490D01*
X393270Y95603D01*
X394549Y91386D01*
X394981Y87000D01*
X394549Y82614D01*
X393270Y78397D01*
X391193Y74510D01*
X388397Y71103D01*
X384990Y68307D01*
X381103Y66230D01*
X376886Y64951D01*
X372602Y64529D01*
X372500Y64549D01*
X367500D01*
Y64608D01*
X364237Y64178D01*
X361196Y62919D01*
X358585Y60915D01*
X356581Y58304D01*
X355322Y55263D01*
X354892Y52000D01*
X354951D01*
Y2549D01*
X284413D01*
X282843Y4549D01*
X282883Y4750D01*
Y16648D01*
X284427Y17477D01*
X284824Y17536D01*
X290522Y11837D01*
X290522Y11837D01*
X291515Y11174D01*
X292685Y10941D01*
X307470D01*
X307470Y10941D01*
X308641Y11174D01*
X309633Y11837D01*
X319663Y21867D01*
X319663Y21867D01*
X320326Y22859D01*
X320559Y24030D01*
X320866Y24203D01*
X322023Y24977D01*
X322787D01*
X324340Y23763D01*
X324411Y21775D01*
X323685Y21049D01*
X323000Y19395D01*
Y17605D01*
X323685Y15951D01*
X324951Y14685D01*
X326605Y14000D01*
X328395D01*
X330049Y14685D01*
X331315Y15951D01*
X332000Y17605D01*
Y19395D01*
X331315Y21049D01*
X330559Y21805D01*
Y24142D01*
X330866Y24203D01*
X332023Y24977D01*
X332797Y26134D01*
X333069Y27500D01*
Y30500D01*
X332797Y31866D01*
X332023Y33023D01*
X330866Y33797D01*
X329500Y34069D01*
X325500D01*
X324134Y33797D01*
X322977Y33023D01*
X322023D01*
X320866Y33797D01*
X319500Y34069D01*
X318860D01*
X318671Y34195D01*
X317500Y34428D01*
X316329Y34195D01*
X315430Y34644D01*
X315023Y36698D01*
X316257Y37931D01*
X319500D01*
X320866Y38203D01*
X322023Y38977D01*
X322977D01*
X324134Y38203D01*
X325500Y37931D01*
X329500D01*
X330866Y38203D01*
X332023Y38977D01*
X332797Y40134D01*
X333069Y41500D01*
Y44500D01*
X332797Y45866D01*
X332023Y47023D01*
X330866Y47797D01*
X329500Y48069D01*
X325500D01*
X324134Y47797D01*
X322977Y47023D01*
X322213D01*
X320559Y48316D01*
Y64142D01*
X320866Y64203D01*
X322023Y64977D01*
X322977D01*
X324134Y64203D01*
X325500Y63931D01*
X329500D01*
X330866Y64203D01*
X332023Y64977D01*
X332797Y66134D01*
X333069Y67500D01*
Y70500D01*
X332797Y71866D01*
X332023Y73023D01*
X330866Y73797D01*
X329500Y74069D01*
X325587D01*
X325409Y74263D01*
X324623Y75933D01*
X326163Y77473D01*
X326163Y77473D01*
X326351Y77755D01*
X326528Y77931D01*
X329500D01*
X330866Y78203D01*
X332023Y78977D01*
X332797Y80134D01*
X333069Y81500D01*
Y84500D01*
X332797Y85866D01*
X332023Y87023D01*
X330866Y87797D01*
X329500Y88069D01*
X325500D01*
X324134Y87797D01*
X322977Y87023D01*
X322213D01*
X320559Y88316D01*
Y91470D01*
X320559Y91471D01*
X320326Y92641D01*
X319663Y93633D01*
X319663Y93633D01*
X309633Y103663D01*
X308641Y104326D01*
X307470Y104559D01*
X307470Y104559D01*
X282883D01*
Y107250D01*
X282843Y107451D01*
X284413Y109451D01*
X372500D01*
X372602Y109471D01*
X376886Y109049D01*
D02*
G37*
G36*
X241359Y92923D02*
X242186Y91686D01*
X243592Y90747D01*
X244441Y90578D01*
Y31805D01*
X243685Y31049D01*
X243000Y29395D01*
Y27605D01*
X243685Y25951D01*
X244441Y25195D01*
Y21422D01*
X243592Y21253D01*
X242186Y20314D01*
X241549Y19361D01*
X239549Y19845D01*
Y20710D01*
X238864Y22364D01*
X237598Y23630D01*
X235944Y24315D01*
X234154D01*
X232500Y23630D01*
X231234Y22364D01*
X230911Y21583D01*
X230850D01*
X229192Y21253D01*
X227786Y20314D01*
X226959Y19077D01*
X225900Y18975D01*
X224841Y19077D01*
X224014Y20314D01*
X224140Y22635D01*
X224271Y22766D01*
X224956Y24420D01*
Y26210D01*
X224271Y27864D01*
X223005Y29130D01*
X221351Y29815D01*
X219561D01*
X217907Y29130D01*
X216641Y27864D01*
X215956Y26210D01*
Y24420D01*
X216324Y23531D01*
X216329Y23459D01*
X215532Y21641D01*
X215236Y21342D01*
X214792Y21253D01*
X213824Y20607D01*
X212500Y20431D01*
X211176Y20607D01*
X210208Y21253D01*
X208550Y21583D01*
X204050D01*
X202392Y21253D01*
X200986Y20314D01*
X200159Y19077D01*
X199100Y18975D01*
X198041Y19077D01*
X197485Y19909D01*
Y34659D01*
X197549Y34685D01*
X198815Y35951D01*
X199500Y37605D01*
Y39395D01*
X198815Y41049D01*
X197549Y42315D01*
X195895Y43000D01*
X194105D01*
X192451Y42315D01*
X191185Y41049D01*
X190500Y39395D01*
Y37605D01*
X191185Y35951D01*
X191367Y35769D01*
Y21583D01*
X189650D01*
X188521Y21359D01*
X186978Y22234D01*
X186521Y22676D01*
Y48500D01*
Y68285D01*
X188521Y68683D01*
X188824Y67951D01*
X190090Y66685D01*
X191744Y66000D01*
X193534D01*
X195188Y66685D01*
X196454Y67951D01*
X197139Y69605D01*
Y71395D01*
X196454Y73049D01*
X195188Y74315D01*
X193534Y75000D01*
X191744D01*
X190090Y74315D01*
X188824Y73049D01*
X188521Y72317D01*
X186521Y72715D01*
Y89324D01*
X186978Y89766D01*
X188521Y90641D01*
X189650Y90417D01*
X194150D01*
X195808Y90747D01*
X197214Y91686D01*
X198041Y92923D01*
X199100Y93025D01*
X200159Y92923D01*
X200986Y91686D01*
X202392Y90747D01*
X204050Y90417D01*
X208550D01*
X210208Y90747D01*
X211176Y91393D01*
X212500Y91569D01*
X213824Y91393D01*
X214792Y90747D01*
X215506Y89410D01*
X215500Y89395D01*
Y87605D01*
X216185Y85951D01*
X217451Y84685D01*
X219105Y84000D01*
X220895D01*
X222549Y84685D01*
X223815Y85951D01*
X224500Y87605D01*
Y89395D01*
X223815Y91049D01*
X223868Y91588D01*
X224014Y91686D01*
X224841Y92923D01*
X225900Y93025D01*
X226959Y92923D01*
X227786Y91686D01*
X229192Y90747D01*
X230850Y90417D01*
X235350D01*
X237008Y90747D01*
X238414Y91686D01*
X239241Y92923D01*
X240300Y93025D01*
X241359Y92923D01*
D02*
G37*
G36*
X296115Y92441D02*
X295977Y92202D01*
X295500Y90422D01*
Y88579D01*
X295977Y86798D01*
X296858Y85272D01*
X298481Y86895D01*
X299895Y85481D01*
X297919Y83505D01*
X298010Y83150D01*
X297919Y82795D01*
X299895Y80819D01*
X298481Y79405D01*
X296858Y81028D01*
X295977Y79502D01*
X295500Y77722D01*
Y75879D01*
X295977Y74098D01*
X296858Y72572D01*
X298481Y74195D01*
X299895Y72781D01*
X297919Y70805D01*
X298010Y70450D01*
X297687Y69187D01*
X296899Y68398D01*
X295977Y66802D01*
X295500Y65022D01*
Y63179D01*
X295977Y61398D01*
X296899Y59802D01*
X297687Y59014D01*
X298010Y57750D01*
X297687Y56487D01*
X296899Y55698D01*
X295977Y54102D01*
X295500Y52322D01*
Y50479D01*
X295977Y48698D01*
X296899Y47102D01*
X297687Y46314D01*
X298010Y45050D01*
X297687Y43787D01*
X296899Y42998D01*
X295977Y41402D01*
X295500Y39622D01*
Y37778D01*
X295977Y35998D01*
X296899Y34402D01*
X297687Y33614D01*
X298010Y32350D01*
X297687Y31086D01*
X296899Y30298D01*
X295977Y28702D01*
X295500Y26922D01*
Y25078D01*
X293919Y23251D01*
X293473Y23195D01*
X288005Y28663D01*
X287013Y29326D01*
X285842Y29559D01*
X285842Y29559D01*
X262805D01*
X262549Y29815D01*
X260895Y30500D01*
X259105D01*
X257451Y29815D01*
X256185Y28549D01*
X255500Y26895D01*
Y25105D01*
X256185Y23451D01*
X256784Y22852D01*
X256796Y20679D01*
X256660Y20363D01*
X256586Y20314D01*
X255759Y19077D01*
X254700Y18975D01*
X253641Y19077D01*
X252814Y20314D01*
X251408Y21253D01*
X250559Y21422D01*
Y25195D01*
X251315Y25951D01*
X252000Y27605D01*
Y29395D01*
X251315Y31049D01*
X250559Y31805D01*
Y90578D01*
X251408Y90747D01*
X252814Y91686D01*
X253641Y92923D01*
X254700Y93025D01*
X255759Y92923D01*
X256586Y91686D01*
X257992Y90747D01*
X259650Y90417D01*
X264150D01*
X264156Y90418D01*
X267237Y87337D01*
X267237Y87337D01*
X268230Y86674D01*
X269400Y86441D01*
X283607D01*
X283607Y86441D01*
X284777Y86674D01*
X285770Y87337D01*
X292874Y94441D01*
X294960D01*
X296115Y92441D01*
D02*
G37*
%LPC*%
G36*
X-13354Y37500D02*
X-16646D01*
X-19825Y36648D01*
X-22675Y35003D01*
X-25003Y32675D01*
X-26648Y29825D01*
X-27500Y26646D01*
Y23354D01*
X-26648Y20175D01*
X-25003Y17325D01*
X-22675Y14998D01*
X-19825Y13352D01*
X-16646Y12500D01*
X-13354D01*
X-10175Y13352D01*
X-7325Y14998D01*
X-4997Y17325D01*
X-3352Y20175D01*
X-2500Y23354D01*
Y26646D01*
X-3352Y29825D01*
X-4997Y32675D01*
X-7325Y35003D01*
X-10175Y36648D01*
X-13354Y37500D01*
D02*
G37*
G36*
X115895Y77000D02*
X114105D01*
X112451Y76315D01*
X111185Y75049D01*
X110500Y73395D01*
Y71605D01*
X111185Y69951D01*
X111273Y69863D01*
X111281Y69820D01*
X110688Y67620D01*
X109951Y67315D01*
X108685Y66049D01*
X108000Y64395D01*
Y62605D01*
X108685Y60951D01*
X109951Y59685D01*
X111185Y58549D01*
X110500Y56895D01*
Y55105D01*
X111185Y53451D01*
X112451Y52185D01*
X114105Y51500D01*
X115895D01*
X117549Y52185D01*
X118815Y53451D01*
X119500Y55105D01*
Y56895D01*
X118815Y58549D01*
X117549Y59815D01*
X116315Y60951D01*
X117000Y62605D01*
Y64395D01*
X116315Y66049D01*
X116227Y66137D01*
X116219Y66180D01*
X116812Y68380D01*
X117549Y68685D01*
X118815Y69951D01*
X119500Y71605D01*
Y73395D01*
X118815Y75049D01*
X117549Y76315D01*
X115895Y77000D01*
D02*
G37*
G36*
X374146Y99500D02*
X370854D01*
X367675Y98648D01*
X364825Y97002D01*
X362497Y94675D01*
X360852Y91825D01*
X360000Y88646D01*
Y85354D01*
X360852Y82175D01*
X362497Y79325D01*
X364825Y76997D01*
X367675Y75352D01*
X370854Y74500D01*
X374146D01*
X377325Y75352D01*
X380175Y76997D01*
X382503Y79325D01*
X384148Y82175D01*
X385000Y85354D01*
Y88646D01*
X384148Y91825D01*
X382503Y94675D01*
X380175Y97002D01*
X377325Y98648D01*
X374146Y99500D01*
D02*
G37*
G36*
X235895Y78000D02*
X234105D01*
X232451Y77315D01*
X231185Y76049D01*
X230500Y74395D01*
Y72605D01*
X231185Y70951D01*
X232451Y69685D01*
X234105Y69000D01*
X235895D01*
X237549Y69685D01*
X238815Y70951D01*
X239500Y72605D01*
Y74395D01*
X238815Y76049D01*
X237549Y77315D01*
X235895Y78000D01*
D02*
G37*
%LPD*%
D10*
X317500Y29000D02*
D03*
Y43000D02*
D03*
X327500D02*
D03*
Y29000D02*
D03*
X317500Y83000D02*
D03*
Y69000D02*
D03*
X327500D02*
D03*
Y83000D02*
D03*
D11*
X8700Y101000D02*
D03*
X23100D02*
D03*
X37500D02*
D03*
X51900D02*
D03*
X66300D02*
D03*
Y11000D02*
D03*
X51900D02*
D03*
X37500D02*
D03*
X23100D02*
D03*
X8700D02*
D03*
X78700D02*
D03*
X93100D02*
D03*
X107500D02*
D03*
X121900D02*
D03*
X136300D02*
D03*
Y101000D02*
D03*
X121900D02*
D03*
X107500D02*
D03*
X93100D02*
D03*
X78700D02*
D03*
X148700D02*
D03*
X163100D02*
D03*
X177500D02*
D03*
X191900D02*
D03*
X206300D02*
D03*
Y11000D02*
D03*
X191900D02*
D03*
X177500D02*
D03*
X163100D02*
D03*
X148700D02*
D03*
X218700D02*
D03*
X233100D02*
D03*
X247500D02*
D03*
X261900D02*
D03*
X276300D02*
D03*
Y101000D02*
D03*
X261900D02*
D03*
X247500D02*
D03*
X233100D02*
D03*
X218700D02*
D03*
D15*
X169426Y35426D02*
X170000Y36000D01*
X174722Y48500D02*
X183462D01*
X169426Y32671D02*
Y35426D01*
X219882Y24741D02*
X220456Y25315D01*
X219882Y12182D02*
Y24741D01*
X90000Y95000D02*
Y97900D01*
X93100Y101000D01*
X164500Y38278D02*
X174722Y48500D01*
X157500Y28523D02*
X164500Y35523D01*
Y38278D01*
X159778Y23023D02*
X169426Y32671D01*
X151767Y18067D02*
X156723Y23023D01*
X150083Y18067D02*
X151767D01*
X93100Y11000D02*
Y15400D01*
X165000Y16900D02*
X177500Y29400D01*
X327500Y18500D02*
Y30500D01*
X183462Y48500D02*
Y91038D01*
X150008Y17992D02*
X150083Y18067D01*
X156723Y23023D02*
X159778D01*
X150000Y18000D02*
X150008Y17992D01*
X191900Y11000D02*
X194426Y13526D01*
Y37926D02*
X195000Y38500D01*
X194426Y13526D02*
Y37926D01*
X136300Y49800D02*
X165000Y78500D01*
X136300Y11000D02*
Y49800D01*
X177500Y11000D02*
Y15000D01*
X317500Y69000D02*
X327500D01*
X317500Y43000D02*
Y69000D01*
X276800Y101500D02*
X307470D01*
X317500Y91471D01*
X327271Y83000D02*
X327500D01*
X324000Y79729D02*
X327271Y83000D01*
X324000Y79636D02*
Y79729D01*
X321364Y77000D02*
X324000Y79636D01*
X313636Y77000D02*
X321364D01*
X310500Y80136D02*
X313636Y77000D01*
X310500Y80136D02*
Y92814D01*
X283607Y89500D02*
X291607Y97500D01*
X305814D02*
X310500Y92814D01*
X317500Y83000D02*
Y91471D01*
Y43000D02*
X327729D01*
X269400Y22500D02*
X284185D01*
X292685Y14000D01*
X294342Y18000D02*
X305814D01*
X310500Y36500D02*
X317000Y43000D01*
X260500Y26500D02*
X285842D01*
X317500Y24030D02*
Y31370D01*
X317000Y43000D02*
X317500D01*
X260000Y26000D02*
X260500Y26500D01*
X285842D02*
X294342Y18000D01*
X262500Y5500D02*
Y15600D01*
X177500Y97000D02*
X183462Y91038D01*
X177500Y15000D02*
X183462Y20962D01*
Y48500D01*
X107500Y97000D02*
Y101000D01*
X97000Y49000D02*
Y86500D01*
Y49000D02*
X107500Y38500D01*
X97000Y86500D02*
X107500Y97000D01*
Y11000D02*
Y38500D01*
X291607Y97500D02*
X305814D01*
X269400Y89500D02*
X283607D01*
X120188Y88688D02*
Y104188D01*
X115000Y83500D02*
X120188Y88688D01*
X148700Y97150D02*
Y101000D01*
Y97150D02*
X157350Y88500D01*
X157500D01*
X177500Y97000D02*
Y101000D01*
X305814Y18000D02*
X310500Y22686D01*
X292685Y14000D02*
X307470D01*
X317500Y24030D01*
X310500Y22686D02*
Y36500D01*
X262500Y15600D02*
X269400Y22500D01*
X218700Y11000D02*
X219882Y12182D01*
X92500Y16000D02*
X93100Y15400D01*
X165000Y16000D02*
Y16900D01*
X276300Y101000D02*
X276800Y101500D01*
X261900Y97000D02*
X269400Y89500D01*
X120188Y104188D02*
X122500Y106500D01*
X261900Y97000D02*
Y101000D01*
X247500Y11000D02*
Y101000D01*
X37500Y16000D02*
Y101000D01*
X22500Y5500D02*
Y10400D01*
X23100Y11000D01*
X22500Y106500D02*
X23100Y105900D01*
Y101000D02*
Y105900D01*
X206800Y101500D02*
X207500D01*
X206300Y101000D02*
X206800Y101500D01*
X191900Y105900D02*
X192500Y106500D01*
X191900Y101000D02*
Y105900D01*
X233100Y101000D02*
X235000Y99100D01*
Y96000D02*
Y99100D01*
X218700Y101000D02*
X219426Y100274D01*
Y89074D02*
Y100274D01*
Y89074D02*
X220000Y88500D01*
X79426Y89074D02*
X80000Y88500D01*
X79426Y89074D02*
Y100274D01*
X78700Y101000D02*
X79426Y100274D01*
X78700Y11000D02*
X79426Y11726D01*
Y22926D01*
X80000Y23500D01*
X177500Y29400D02*
Y41000D01*
X327500Y30500D02*
X327750Y30750D01*
X276300Y7200D02*
X277500Y6000D01*
X276300Y7200D02*
Y11000D01*
D16*
X302500Y26000D02*
D03*
Y38700D02*
D03*
Y64100D02*
D03*
Y76800D02*
D03*
Y89500D02*
D03*
Y51400D02*
D03*
X372500Y87000D02*
D03*
X-15000Y25000D02*
D03*
D17*
X206300Y11000D02*
D03*
X235049Y19815D02*
D03*
X220456Y25315D02*
D03*
X90000Y95000D02*
D03*
X157500Y28523D02*
D03*
X130058Y28956D02*
D03*
X170000Y36000D02*
D03*
X177500Y41000D02*
D03*
X195000Y38500D02*
D03*
X165000Y78500D02*
D03*
X115000Y83500D02*
D03*
X150000Y18000D02*
D03*
X342379Y103379D02*
D03*
X339879Y8379D02*
D03*
X10716Y30203D02*
D03*
X27379Y83379D02*
D03*
X47379Y75879D02*
D03*
X94879Y33379D02*
D03*
X192639Y70500D02*
D03*
X260000Y26000D02*
D03*
X262500Y5500D02*
D03*
X192500D02*
D03*
X235000Y73500D02*
D03*
Y43500D02*
D03*
X207500Y41000D02*
D03*
X192500Y46000D02*
D03*
X172500Y70639D02*
D03*
X102500Y56000D02*
D03*
X112500Y63500D02*
D03*
X115000Y56000D02*
D03*
Y72500D02*
D03*
X127500Y83500D02*
D03*
X327500Y18500D02*
D03*
X247500Y28500D02*
D03*
X157500Y88500D02*
D03*
X107500Y38500D02*
D03*
X37500Y16000D02*
D03*
X8700Y11000D02*
D03*
X22500Y5500D02*
D03*
X53292Y5207D02*
D03*
X8700Y101000D02*
D03*
X22500Y106500D02*
D03*
X277500Y106000D02*
D03*
X136300Y101000D02*
D03*
X66300D02*
D03*
X207500Y101500D02*
D03*
X262500Y106500D02*
D03*
X192500D02*
D03*
X122500D02*
D03*
X52500Y106000D02*
D03*
X165000Y96000D02*
D03*
X235000D02*
D03*
X220000Y88500D02*
D03*
X80000D02*
D03*
Y23500D02*
D03*
X165000Y16000D02*
D03*
X92500D02*
D03*
X66300Y11000D02*
D03*
X136300D02*
D03*
X122500Y5500D02*
D03*
X277500Y6000D02*
D03*
M02*
