G04*
G04 #@! TF.GenerationSoftware,Altium Limited,Altium Designer,25.8.1 (18)*
G04*
G04 Layer_Color=128*
%FSLAX44Y44*%
%MOMM*%
G71*
G04*
G04 #@! TF.SameCoordinates,10C7A1AC-A1A7-45AE-8E0E-EF82A9A0A354*
G04*
G04*
G04 #@! TF.FilePolarity,Positive*
G04*
G01*
G75*
%ADD18R,0.6500X0.4000*%
%ADD19R,0.9000X0.6000*%
%ADD20R,1.4000X1.2000*%
G04:AMPARAMS|DCode=21|XSize=0.65mm|YSize=0.4mm|CornerRadius=0mm|HoleSize=0mm|Usage=FLASHONLY|Rotation=135.000|XOffset=0mm|YOffset=0mm|HoleType=Round|Shape=Rectangle|*
%AMROTATEDRECTD21*
4,1,4,0.3712,-0.0884,0.0884,-0.3712,-0.3712,0.0884,-0.0884,0.3712,0.3712,-0.0884,0.0*
%
%ADD21ROTATEDRECTD21*%

G04:AMPARAMS|DCode=22|XSize=0.25mm|YSize=0.8mm|CornerRadius=0mm|HoleSize=0mm|Usage=FLASHONLY|Rotation=225.000|XOffset=0mm|YOffset=0mm|HoleType=Round|Shape=Round|*
%AMOVALD22*
21,1,0.5500,0.2500,0.0000,0.0000,315.0*
1,1,0.2500,-0.1945,0.1945*
1,1,0.2500,0.1945,-0.1945*
%
%ADD22OVALD22*%

G04:AMPARAMS|DCode=23|XSize=0.25mm|YSize=0.8mm|CornerRadius=0mm|HoleSize=0mm|Usage=FLASHONLY|Rotation=315.000|XOffset=0mm|YOffset=0mm|HoleType=Round|Shape=Round|*
%AMOVALD23*
21,1,0.5500,0.2500,0.0000,0.0000,45.0*
1,1,0.2500,-0.1945,-0.1945*
1,1,0.2500,0.1945,0.1945*
%
%ADD23OVALD23*%

G36*
X143066Y73818D02*
X143207Y73678D01*
X149571Y67314D01*
X149571D01*
X149712Y67173D01*
X149864Y66806D01*
Y66408D01*
X149712Y66040D01*
X149571Y65900D01*
X143207Y59535D01*
X143207D01*
X143066Y59395D01*
X142699Y59243D01*
X142301D01*
X141933Y59395D01*
X141793Y59535D01*
X135429Y65900D01*
X135429Y65900D01*
X135288Y66040D01*
X135136Y66408D01*
Y66806D01*
X135288Y67173D01*
X135429Y67314D01*
X141793Y73678D01*
Y73678D01*
X141933Y73818D01*
X142301Y73971D01*
X142699D01*
X143066Y73818D01*
D02*
G37*
G36*
Y52605D02*
X143207Y52464D01*
X149571Y46101D01*
X149571Y46101D01*
X149712Y45960D01*
X149864Y45592D01*
Y45195D01*
X149712Y44827D01*
X149571Y44686D01*
X143207Y38322D01*
X143207D01*
X143066Y38182D01*
X142699Y38029D01*
X142301D01*
X141933Y38182D01*
X141793Y38322D01*
X135429Y44686D01*
Y44686D01*
X135288Y44827D01*
X135136Y45195D01*
Y45592D01*
X135288Y45960D01*
X135429Y46101D01*
X141793Y52464D01*
Y52464D01*
X141933Y52605D01*
X142301Y52757D01*
X142699D01*
X143066Y52605D01*
D02*
G37*
G36*
X153673Y63212D02*
X153814Y63071D01*
X160178Y56707D01*
X160178Y56707D01*
X160318Y56567D01*
X160471Y56199D01*
Y55801D01*
X160318Y55434D01*
X160178Y55293D01*
X153814Y48929D01*
Y48929D01*
X153673Y48788D01*
X153306Y48636D01*
X152908D01*
X152540Y48788D01*
X152400Y48929D01*
X146035Y55293D01*
X145895Y55434D01*
X145743Y55801D01*
Y56199D01*
X145895Y56567D01*
X146035Y56707D01*
X152400Y63071D01*
X152400D01*
X152540Y63212D01*
X152908Y63364D01*
X153306D01*
X153673Y63212D01*
D02*
G37*
G36*
X132460Y63212D02*
X132600Y63071D01*
X138965Y56707D01*
X138964Y56707D01*
X139105Y56567D01*
X139257Y56199D01*
Y55801D01*
X139105Y55434D01*
X138964Y55293D01*
X132600Y48929D01*
Y48929D01*
X132460Y48788D01*
X132092Y48636D01*
X131694D01*
X131327Y48788D01*
X131186Y48929D01*
X124822Y55293D01*
X124682Y55434D01*
X124529Y55801D01*
Y56199D01*
X124682Y56567D01*
X124822Y56707D01*
X131186Y63071D01*
Y63071D01*
X131327Y63212D01*
X131694Y63364D01*
X132092D01*
X132460Y63212D01*
D02*
G37*
D18*
X192500Y63500D02*
D03*
Y53500D02*
D03*
D19*
X205000Y66000D02*
D03*
Y51000D02*
D03*
D20*
X222500Y70500D02*
D03*
Y46500D02*
D03*
D21*
X98964Y69964D02*
D03*
X106035Y77035D02*
D03*
D22*
X120226Y60596D02*
D03*
X123762Y64132D02*
D03*
X127297Y67667D02*
D03*
X130833Y71203D02*
D03*
X134368Y74738D02*
D03*
X137904Y78274D02*
D03*
X164774Y51404D02*
D03*
X161238Y47868D02*
D03*
X157703Y44333D02*
D03*
X154167Y40797D02*
D03*
X150632Y37262D02*
D03*
X147096Y33726D02*
D03*
D23*
Y78274D02*
D03*
X150632Y74738D02*
D03*
X154167Y71203D02*
D03*
X157703Y67667D02*
D03*
X161238Y64132D02*
D03*
X164774Y60596D02*
D03*
X137904Y33726D02*
D03*
X134368Y37262D02*
D03*
X130833Y40797D02*
D03*
X127297Y44333D02*
D03*
X123762Y47868D02*
D03*
X120226Y51404D02*
D03*
M02*
