G04*
G04 #@! TF.GenerationSoftware,Altium Limited,Altium Designer,25.8.1 (18)*
G04*
G04 Layer_Physical_Order=4*
G04 Layer_Color=16711680*
%FSLAX44Y44*%
%MOMM*%
G71*
G04*
G04 #@! TF.SameCoordinates,10C7A1AC-A1A7-45AE-8E0E-EF82A9A0A354*
G04*
G04*
G04 #@! TF.FilePolarity,Positive*
G04*
G01*
G75*
%ADD15C,0.2000*%
%ADD16C,1.0000*%
%ADD17C,0.5000*%
%ADD18R,0.6500X0.4000*%
%ADD19R,0.9000X0.6000*%
%ADD20R,1.4000X1.2000*%
G04:AMPARAMS|DCode=21|XSize=0.65mm|YSize=0.4mm|CornerRadius=0mm|HoleSize=0mm|Usage=FLASHONLY|Rotation=135.000|XOffset=0mm|YOffset=0mm|HoleType=Round|Shape=Rectangle|*
%AMROTATEDRECTD21*
4,1,4,0.3712,-0.0884,0.0884,-0.3712,-0.3712,0.0884,-0.0884,0.3712,0.3712,-0.0884,0.0*
%
%ADD21ROTATEDRECTD21*%

G04:AMPARAMS|DCode=22|XSize=0.25mm|YSize=0.8mm|CornerRadius=0mm|HoleSize=0mm|Usage=FLASHONLY|Rotation=225.000|XOffset=0mm|YOffset=0mm|HoleType=Round|Shape=Round|*
%AMOVALD22*
21,1,0.5500,0.2500,0.0000,0.0000,315.0*
1,1,0.2500,-0.1945,0.1945*
1,1,0.2500,0.1945,-0.1945*
%
%ADD22OVALD22*%

G04:AMPARAMS|DCode=23|XSize=0.25mm|YSize=0.8mm|CornerRadius=0mm|HoleSize=0mm|Usage=FLASHONLY|Rotation=315.000|XOffset=0mm|YOffset=0mm|HoleType=Round|Shape=Round|*
%AMOVALD23*
21,1,0.5500,0.2500,0.0000,0.0000,45.0*
1,1,0.2500,-0.1945,-0.1945*
1,1,0.2500,0.1945,0.1945*
%
%ADD23OVALD23*%

%ADD24P,3.6062X4X360.0*%
G36*
X376886Y109049D02*
X381103Y107770D01*
X384990Y105693D01*
X388397Y102897D01*
X391193Y99490D01*
X393270Y95603D01*
X394549Y91386D01*
X394981Y87000D01*
X394549Y82614D01*
X393270Y78397D01*
X391193Y74510D01*
X388397Y71103D01*
X384990Y68307D01*
X381103Y66230D01*
X376886Y64951D01*
X372602Y64529D01*
X372500Y64549D01*
X367500D01*
Y64608D01*
X364237Y64178D01*
X361196Y62919D01*
X358585Y60915D01*
X356581Y58304D01*
X355322Y55263D01*
X354892Y52000D01*
X354951D01*
Y2549D01*
X283026D01*
X281770Y4549D01*
X282000Y5105D01*
Y6895D01*
X281315Y8549D01*
X280049Y9815D01*
X278395Y10500D01*
X276605D01*
X274951Y9815D01*
X273685Y8549D01*
X273000Y6895D01*
Y5105D01*
X273230Y4549D01*
X271974Y2549D01*
X268313D01*
X266977Y4549D01*
X267000Y4605D01*
Y6395D01*
X266315Y8049D01*
X265049Y9315D01*
X263395Y10000D01*
X261605D01*
X259951Y9315D01*
X258685Y8049D01*
X258000Y6395D01*
Y4605D01*
X258023Y4549D01*
X256687Y2549D01*
X198313D01*
X196977Y4549D01*
X197000Y4605D01*
Y6395D01*
X196315Y8049D01*
X195049Y9315D01*
X193395Y10000D01*
X191605D01*
X189951Y9315D01*
X188685Y8049D01*
X188000Y6395D01*
Y4605D01*
X188023Y4549D01*
X186687Y2549D01*
X128313Y2549D01*
X126977Y4549D01*
X127000Y4605D01*
Y6395D01*
X126315Y8049D01*
X125049Y9315D01*
X123395Y10000D01*
X121605D01*
X119951Y9315D01*
X118685Y8049D01*
X118000Y6395D01*
Y4605D01*
X118023Y4549D01*
X116687Y2549D01*
X59227D01*
X57793Y4312D01*
Y6103D01*
X57107Y7757D01*
X55841Y9022D01*
X54188Y9707D01*
X52397D01*
X50743Y9022D01*
X49478Y7757D01*
X48793Y6103D01*
Y4549D01*
X48688Y4184D01*
X47358Y2549D01*
X28313D01*
X26977Y4549D01*
X27000Y4605D01*
Y6395D01*
X26315Y8049D01*
X25049Y9315D01*
X23395Y10000D01*
X21605D01*
X19951Y9315D01*
X18685Y8049D01*
X18000Y6395D01*
Y4605D01*
X18023Y4549D01*
X16687Y2549D01*
X-5000D01*
X-5000Y2549D01*
X-15000D01*
X-15102Y2529D01*
X-19386Y2951D01*
X-23603Y4230D01*
X-27490Y6308D01*
X-30897Y9103D01*
X-33693Y12510D01*
X-35770Y16397D01*
X-37049Y20614D01*
X-37481Y25000D01*
X-37049Y29386D01*
X-35770Y33603D01*
X-33693Y37490D01*
X-30897Y40897D01*
X-27490Y43692D01*
X-23603Y45770D01*
X-19386Y47049D01*
X-15102Y47471D01*
X-15000Y47451D01*
X-10000D01*
Y47392D01*
X-6737Y47822D01*
X-3696Y49081D01*
X-1085Y51085D01*
X919Y53696D01*
X2178Y56737D01*
X2608Y60000D01*
X2549D01*
Y98865D01*
X4549Y99263D01*
X4885Y98451D01*
X6151Y97185D01*
X7805Y96500D01*
X9595D01*
X11249Y97185D01*
X12515Y98451D01*
X13200Y100105D01*
Y101895D01*
X12515Y103549D01*
X11249Y104815D01*
X9595Y105500D01*
X7805D01*
X6151Y104815D01*
X4885Y103549D01*
X4549Y102738D01*
X2549Y103135D01*
Y109451D01*
X16687D01*
X18023Y107451D01*
X18000Y107395D01*
Y105605D01*
X18685Y103951D01*
X19951Y102685D01*
X21605Y102000D01*
X23395D01*
X25049Y102685D01*
X26315Y103951D01*
X27000Y105605D01*
Y107395D01*
X26977Y107451D01*
X28313Y109451D01*
X46974D01*
X48230Y107451D01*
X48000Y106895D01*
Y105105D01*
X48685Y103451D01*
X49951Y102185D01*
X51605Y101500D01*
X53395D01*
X55049Y102185D01*
X56315Y103451D01*
X57000Y105105D01*
Y106895D01*
X56770Y107451D01*
X58026Y109451D01*
X116687D01*
X118023Y107451D01*
X118000Y107395D01*
Y105605D01*
X118685Y103951D01*
X119951Y102685D01*
X121605Y102000D01*
X123395D01*
X125049Y102685D01*
X126315Y103951D01*
X127000Y105605D01*
Y107395D01*
X126977Y107451D01*
X128313Y109451D01*
X186687Y109451D01*
X188023Y107451D01*
X188000Y107395D01*
Y105605D01*
X188685Y103951D01*
X189951Y102685D01*
X191605Y102000D01*
X193395D01*
X195049Y102685D01*
X196315Y103951D01*
X197000Y105605D01*
Y107395D01*
X196977Y107451D01*
X198313Y109451D01*
X256687D01*
X258023Y107451D01*
X258000Y107395D01*
Y105605D01*
X258685Y103951D01*
X259951Y102685D01*
X261605Y102000D01*
X263395D01*
X265049Y102685D01*
X266315Y103951D01*
X267000Y105605D01*
Y107395D01*
X266977Y107451D01*
X268313Y109451D01*
X271974D01*
X273230Y107451D01*
X273000Y106895D01*
Y105105D01*
X273685Y103451D01*
X274951Y102185D01*
X276605Y101500D01*
X278395D01*
X280049Y102185D01*
X281315Y103451D01*
X282000Y105105D01*
Y106895D01*
X281770Y107451D01*
X283026Y109451D01*
X372500D01*
X372602Y109471D01*
X376886Y109049D01*
D02*
G37*
%LPC*%
G36*
X208395Y106000D02*
X206605D01*
X204951Y105315D01*
X203685Y104049D01*
X203000Y102395D01*
Y100605D01*
X203685Y98951D01*
X204951Y97685D01*
X206605Y97000D01*
X208395D01*
X210049Y97685D01*
X211315Y98951D01*
X212000Y100605D01*
Y102395D01*
X211315Y104049D01*
X210049Y105315D01*
X208395Y106000D01*
D02*
G37*
G36*
X67195Y105500D02*
X65405D01*
X63751Y104815D01*
X62485Y103549D01*
X61800Y101895D01*
Y100105D01*
X62485Y98451D01*
X63751Y97185D01*
X65405Y96500D01*
X67195D01*
X68849Y97185D01*
X70115Y98451D01*
X70800Y100105D01*
Y101895D01*
X70115Y103549D01*
X68849Y104815D01*
X67195Y105500D01*
D02*
G37*
G36*
X303421Y96500D02*
X301578D01*
X299798Y96023D01*
X298272Y95142D01*
X299895Y93519D01*
X298481Y92105D01*
X296858Y93728D01*
X295977Y92202D01*
X295500Y90422D01*
Y88579D01*
X295977Y86798D01*
X296858Y85272D01*
X298481Y86895D01*
X299895Y85481D01*
X297919Y83505D01*
X298010Y83150D01*
X297919Y82795D01*
X299895Y80819D01*
X298481Y79405D01*
X296858Y81028D01*
X295977Y79502D01*
X295500Y77722D01*
Y75879D01*
X295977Y74098D01*
X296858Y72572D01*
X298481Y74195D01*
X299895Y72781D01*
X297919Y70805D01*
X298010Y70450D01*
X297687Y69187D01*
X296899Y68398D01*
X295977Y66802D01*
X295500Y65022D01*
Y63179D01*
X295977Y61398D01*
X296899Y59802D01*
X297687Y59014D01*
X298010Y57750D01*
X297687Y56487D01*
X296899Y55698D01*
X295977Y54102D01*
X295500Y52322D01*
Y50479D01*
X295977Y48698D01*
X296899Y47102D01*
X297687Y46314D01*
X298010Y45050D01*
X297687Y43787D01*
X296899Y42998D01*
X295977Y41402D01*
X295500Y39622D01*
Y37778D01*
X295977Y35998D01*
X296899Y34402D01*
X297687Y33614D01*
X298010Y32350D01*
X297687Y31086D01*
X296899Y30298D01*
X295977Y28702D01*
X295500Y26922D01*
Y25078D01*
X295977Y23298D01*
X296899Y21702D01*
X298202Y20399D01*
X299798Y19477D01*
X301578Y19000D01*
X303421D01*
X305202Y19477D01*
X306798Y20399D01*
X308101Y21702D01*
X309023Y23298D01*
X309500Y25078D01*
Y26922D01*
X309023Y28702D01*
X308101Y30298D01*
X307313Y31086D01*
X306990Y32350D01*
X307313Y33614D01*
X308101Y34402D01*
X309023Y35998D01*
X309500Y37778D01*
Y39622D01*
X309023Y41402D01*
X308101Y42998D01*
X307313Y43787D01*
X306990Y45050D01*
X307313Y46314D01*
X308101Y47102D01*
X309023Y48698D01*
X309500Y50479D01*
Y52322D01*
X309023Y54102D01*
X308101Y55698D01*
X307313Y56487D01*
X306990Y57750D01*
X307313Y59014D01*
X308101Y59802D01*
X309023Y61398D01*
X309500Y63179D01*
Y65022D01*
X309023Y66802D01*
X308101Y68398D01*
X307313Y69187D01*
X306990Y70450D01*
X307080Y70805D01*
X305105Y72781D01*
X306519Y74195D01*
X308142Y72572D01*
X309023Y74098D01*
X309500Y75879D01*
Y77722D01*
X309023Y79502D01*
X308142Y81028D01*
X306519Y79405D01*
X305105Y80819D01*
X307080Y82795D01*
X306990Y83150D01*
X307080Y83505D01*
X305105Y85481D01*
X306519Y86895D01*
X308142Y85272D01*
X309023Y86798D01*
X309500Y88579D01*
Y90422D01*
X309023Y92202D01*
X308142Y93728D01*
X306519Y92105D01*
X305105Y93519D01*
X306728Y95142D01*
X305202Y96023D01*
X303421Y96500D01*
D02*
G37*
G36*
X235895Y100500D02*
X234105D01*
X232451Y99815D01*
X231185Y98549D01*
X230500Y96895D01*
Y95105D01*
X231185Y93451D01*
X232451Y92185D01*
X234105Y91500D01*
X235895D01*
X237549Y92185D01*
X238815Y93451D01*
X239500Y95105D01*
Y96895D01*
X238815Y98549D01*
X237549Y99815D01*
X235895Y100500D01*
D02*
G37*
G36*
X90895Y99500D02*
X89105D01*
X87451Y98815D01*
X86185Y97549D01*
X85500Y95895D01*
Y94105D01*
X86185Y92451D01*
X87451Y91185D01*
X89105Y90500D01*
X90895D01*
X92549Y91185D01*
X93815Y92451D01*
X94500Y94105D01*
Y95895D01*
X93815Y97549D01*
X92549Y98815D01*
X90895Y99500D01*
D02*
G37*
G36*
X137195Y105500D02*
X135405D01*
X133751Y104815D01*
X132485Y103549D01*
X131800Y101895D01*
Y100105D01*
X132485Y98451D01*
X133751Y97185D01*
X135405Y96500D01*
X136474D01*
X146461Y86513D01*
X145852Y84294D01*
X145493Y84203D01*
X138533Y91163D01*
X137541Y91826D01*
X136370Y92059D01*
X136370Y92059D01*
X120500D01*
X120500Y92059D01*
X119330Y91826D01*
X118337Y91163D01*
X118337Y91163D01*
X115174Y88000D01*
X114105D01*
X112451Y87315D01*
X111185Y86049D01*
X110500Y84395D01*
Y82605D01*
X109789Y81727D01*
X107312Y81416D01*
X105152Y83576D01*
X99495Y77919D01*
X106919Y70495D01*
X108500Y72075D01*
X109534Y71832D01*
X110605Y71352D01*
X111185Y69951D01*
X111273Y69863D01*
X111281Y69820D01*
X110688Y67620D01*
X109951Y67315D01*
X108685Y66049D01*
X108000Y64395D01*
Y62605D01*
X108685Y60951D01*
X109951Y59685D01*
X111185Y58549D01*
X110500Y56895D01*
Y55105D01*
X110743Y54518D01*
X109505Y52518D01*
X70959D01*
X70959Y52518D01*
X69789Y52285D01*
X68796Y51622D01*
X68796Y51622D01*
X37674Y20500D01*
X36605D01*
X34951Y19815D01*
X33685Y18549D01*
X33000Y16895D01*
Y15105D01*
X33685Y13451D01*
X34951Y12185D01*
X36605Y11500D01*
X38395D01*
X40049Y12185D01*
X41315Y13451D01*
X42000Y15105D01*
Y16174D01*
X72226Y46400D01*
X115140D01*
X115968Y44401D01*
X113126Y41559D01*
X110805D01*
X110049Y42315D01*
X108395Y43000D01*
X106605D01*
X104951Y42315D01*
X103685Y41049D01*
X103000Y39395D01*
Y37605D01*
X103685Y35951D01*
X104951Y34685D01*
X106605Y34000D01*
X108395D01*
X110049Y34685D01*
X110805Y35441D01*
X114393D01*
X114393Y35441D01*
X115564Y35674D01*
X116556Y36337D01*
X120562Y40343D01*
X123010Y40045D01*
X123307Y37597D01*
X122395Y36685D01*
X121732Y35693D01*
X121499Y34522D01*
X121499Y34522D01*
Y26678D01*
X121499Y26678D01*
X121732Y25508D01*
X122395Y24515D01*
X125617Y21293D01*
X125617Y21293D01*
X126609Y20630D01*
X127780Y20397D01*
X127780Y20397D01*
X141240D01*
X141240Y20397D01*
X141461Y20441D01*
X144467D01*
X145500Y18895D01*
Y17105D01*
X146185Y15451D01*
X147451Y14185D01*
X149105Y13500D01*
X150895D01*
X152549Y14185D01*
X153815Y15451D01*
X154500Y17105D01*
Y18068D01*
X154912Y19151D01*
X156222Y19964D01*
X159772D01*
X160184Y19551D01*
X160943Y17964D01*
X160500Y16895D01*
Y15105D01*
X161185Y13451D01*
X162451Y12185D01*
X164105Y11500D01*
X165895D01*
X167549Y12185D01*
X168815Y13451D01*
X169500Y15105D01*
Y16895D01*
X169057Y17964D01*
X169816Y19551D01*
X170228Y19964D01*
X195901D01*
X195902Y19964D01*
X197072Y20197D01*
X198064Y20860D01*
X204961Y27756D01*
X214923D01*
X215956Y26210D01*
Y24420D01*
X216641Y22766D01*
X217907Y21500D01*
X219561Y20815D01*
X221351D01*
X223005Y21500D01*
X224271Y22766D01*
X224956Y24420D01*
Y26210D01*
X225989Y27756D01*
X243000D01*
Y27605D01*
X243685Y25951D01*
X244951Y24685D01*
X246605Y24000D01*
X248395D01*
X250049Y24685D01*
X251315Y25951D01*
X251778Y27068D01*
X253373Y27652D01*
X254000Y27674D01*
X255500Y26174D01*
Y25105D01*
X256185Y23451D01*
X257451Y22185D01*
X259105Y21500D01*
X260895D01*
X262549Y22185D01*
X263815Y23451D01*
X264500Y25105D01*
Y26895D01*
X263815Y28549D01*
X262549Y29815D01*
X260895Y30500D01*
X259826D01*
X253348Y36978D01*
X252356Y37641D01*
X251185Y37874D01*
X251185Y37874D01*
X233241D01*
X231500Y38500D01*
X231500Y39874D01*
Y45500D01*
X229285D01*
Y47500D01*
X231500D01*
Y54500D01*
X223500D01*
Y52285D01*
X221500D01*
Y54500D01*
X213500D01*
Y47500D01*
X215715D01*
Y45500D01*
X213500D01*
Y39874D01*
X213500Y38500D01*
X211759Y37874D01*
X199500D01*
Y39395D01*
X198815Y41049D01*
X197549Y42315D01*
X195895Y43000D01*
X194105D01*
X192451Y42315D01*
X191695Y41559D01*
X189045D01*
X178982Y51622D01*
X177989Y52285D01*
X176819Y52518D01*
X176819Y52518D01*
X168346D01*
X166244Y54619D01*
X165368Y56000D01*
X166244Y57381D01*
X168346Y59482D01*
X172180D01*
X172180Y59482D01*
X173350Y59715D01*
X174343Y60378D01*
X180163Y66198D01*
X180826Y67190D01*
X181059Y68361D01*
X181059Y68361D01*
Y83000D01*
X181059Y83000D01*
X180826Y84171D01*
X180163Y85163D01*
X180163Y85163D01*
X169500Y95826D01*
Y96895D01*
X168815Y98549D01*
X167549Y99815D01*
X165895Y100500D01*
X164105D01*
X162451Y99815D01*
X161185Y98549D01*
X160500Y96895D01*
Y95105D01*
X160944Y94033D01*
X159467Y92556D01*
X158395Y93000D01*
X156605D01*
X154951Y92315D01*
X153685Y91049D01*
X153603Y90851D01*
X151244Y90382D01*
X140800Y100826D01*
Y101895D01*
X140115Y103549D01*
X138849Y104815D01*
X137195Y105500D01*
D02*
G37*
G36*
X220895Y93000D02*
X219105D01*
X217451Y92315D01*
X216185Y91049D01*
X215500Y89395D01*
Y87605D01*
X216185Y85951D01*
X217451Y84685D01*
X219105Y84000D01*
X220895D01*
X222549Y84685D01*
X223815Y85951D01*
X224500Y87605D01*
Y89395D01*
X223815Y91049D01*
X222549Y92315D01*
X220895Y93000D01*
D02*
G37*
G36*
X80895D02*
X79105D01*
X77451Y92315D01*
X76185Y91049D01*
X75500Y89395D01*
Y87605D01*
X76185Y85951D01*
X77451Y84685D01*
X79105Y84000D01*
X80895D01*
X82549Y84685D01*
X83815Y85951D01*
X84500Y87605D01*
Y89395D01*
X83815Y91049D01*
X82549Y92315D01*
X80895Y93000D01*
D02*
G37*
G36*
X374146Y99500D02*
X370854D01*
X367675Y98648D01*
X364825Y97002D01*
X362497Y94675D01*
X360852Y91825D01*
X360000Y88646D01*
Y85354D01*
X360852Y82175D01*
X362497Y79325D01*
X364825Y76997D01*
X367675Y75352D01*
X370854Y74500D01*
X374146D01*
X377325Y75352D01*
X380175Y76997D01*
X382503Y79325D01*
X384148Y82175D01*
X385000Y85354D01*
Y88646D01*
X384148Y91825D01*
X382503Y94675D01*
X380175Y97002D01*
X377325Y98648D01*
X374146Y99500D01*
D02*
G37*
G36*
X98081Y76505D02*
X95959Y74384D01*
X97526Y72817D01*
X96111Y71403D01*
X94545Y72970D01*
X92424Y70848D01*
X95429Y67843D01*
X96995Y69410D01*
X98410Y67995D01*
X96843Y66429D01*
X99848Y63424D01*
X101970Y65545D01*
X100403Y67111D01*
X101817Y68526D01*
X103384Y66959D01*
X105505Y69081D01*
X102500Y72086D01*
X100934Y70519D01*
X99519Y71933D01*
X101086Y73500D01*
X98081Y76505D01*
D02*
G37*
G36*
X231500Y78500D02*
Y78500D01*
X213500D01*
Y73559D01*
X211000D01*
X209830Y73326D01*
X208837Y72663D01*
X207174Y71000D01*
X202826D01*
X200834Y72991D01*
X199842Y73654D01*
X198672Y73887D01*
X198671Y73887D01*
X195616D01*
X195188Y74315D01*
X193534Y75000D01*
X191744D01*
X190090Y74315D01*
X188824Y73049D01*
X188139Y71395D01*
Y69605D01*
X188183Y69500D01*
X187250Y67500D01*
X187250D01*
Y59500D01*
X197750D01*
X198500Y61000D01*
X211500D01*
Y64509D01*
X211736Y64667D01*
X213500Y63724D01*
Y62500D01*
X231500D01*
Y68023D01*
X233500Y69251D01*
X234105Y69000D01*
X235895D01*
X237549Y69685D01*
X238815Y70951D01*
X239500Y72605D01*
Y74395D01*
X238815Y76049D01*
X237549Y77315D01*
X235895Y78000D01*
X234105D01*
X233500Y77749D01*
X231500Y78500D01*
D02*
G37*
G36*
X197750Y57500D02*
X197293Y57500D01*
X193500D01*
Y55285D01*
X191500D01*
Y57500D01*
X187250D01*
Y54500D01*
X189465D01*
Y52500D01*
X187250D01*
Y49500D01*
X191500D01*
Y51715D01*
X193500D01*
Y49500D01*
X197750Y49500D01*
X198500Y47811D01*
Y46000D01*
X204000D01*
Y48215D01*
X206000D01*
Y46000D01*
X211500D01*
Y50000D01*
X209285D01*
Y52000D01*
X211500D01*
Y56000D01*
X206000D01*
Y53785D01*
X204000D01*
Y56000D01*
X198957Y56000D01*
X197750Y57500D01*
D02*
G37*
G36*
X80895Y28000D02*
X79105D01*
X77451Y27315D01*
X76185Y26049D01*
X75500Y24395D01*
Y22605D01*
X76185Y20951D01*
X77451Y19685D01*
X79105Y19000D01*
X80895D01*
X82549Y19685D01*
X83815Y20951D01*
X84500Y22605D01*
Y24395D01*
X83815Y26049D01*
X82549Y27315D01*
X80895Y28000D01*
D02*
G37*
G36*
X235944Y24315D02*
X234154D01*
X232500Y23630D01*
X231234Y22364D01*
X230549Y20710D01*
Y18920D01*
X231234Y17266D01*
X232500Y16000D01*
X234154Y15315D01*
X235944D01*
X237598Y16000D01*
X238864Y17266D01*
X239549Y18920D01*
Y20710D01*
X238864Y22364D01*
X237598Y23630D01*
X235944Y24315D01*
D02*
G37*
G36*
X328395Y23000D02*
X326605D01*
X324951Y22315D01*
X323685Y21049D01*
X323000Y19395D01*
Y17605D01*
X323685Y15951D01*
X324951Y14685D01*
X326605Y14000D01*
X328395D01*
X330049Y14685D01*
X331315Y15951D01*
X332000Y17605D01*
Y19395D01*
X331315Y21049D01*
X330049Y22315D01*
X328395Y23000D01*
D02*
G37*
G36*
X-13354Y37500D02*
X-16646D01*
X-19825Y36648D01*
X-22675Y35003D01*
X-25003Y32675D01*
X-26648Y29825D01*
X-27500Y26646D01*
Y23354D01*
X-26648Y20175D01*
X-25003Y17325D01*
X-22675Y14998D01*
X-19825Y13352D01*
X-16646Y12500D01*
X-13354D01*
X-10175Y13352D01*
X-7325Y14998D01*
X-4997Y17325D01*
X-3352Y20175D01*
X-2500Y23354D01*
Y26646D01*
X-3352Y29825D01*
X-4997Y32675D01*
X-7325Y35003D01*
X-10175Y36648D01*
X-13354Y37500D01*
D02*
G37*
G36*
X93395Y20500D02*
X91605D01*
X89951Y19815D01*
X88685Y18549D01*
X88000Y16895D01*
Y15105D01*
X88685Y13451D01*
X89951Y12185D01*
X91605Y11500D01*
X93395D01*
X95049Y12185D01*
X96315Y13451D01*
X97000Y15105D01*
Y16895D01*
X96315Y18549D01*
X95049Y19815D01*
X93395Y20500D01*
D02*
G37*
G36*
X207195Y15500D02*
X205405D01*
X203751Y14815D01*
X202485Y13549D01*
X201800Y11895D01*
Y10105D01*
X202485Y8451D01*
X203751Y7185D01*
X205405Y6500D01*
X207195D01*
X208849Y7185D01*
X210115Y8451D01*
X210800Y10105D01*
Y11895D01*
X210115Y13549D01*
X208849Y14815D01*
X207195Y15500D01*
D02*
G37*
G36*
X137195D02*
X135405D01*
X133751Y14815D01*
X132485Y13549D01*
X131800Y11895D01*
Y10105D01*
X132485Y8451D01*
X133751Y7185D01*
X135405Y6500D01*
X137195D01*
X138849Y7185D01*
X140115Y8451D01*
X140800Y10105D01*
Y11895D01*
X140115Y13549D01*
X138849Y14815D01*
X137195Y15500D01*
D02*
G37*
G36*
X67195D02*
X65405D01*
X63751Y14815D01*
X62485Y13549D01*
X61800Y11895D01*
Y10105D01*
X62485Y8451D01*
X63751Y7185D01*
X65405Y6500D01*
X67195D01*
X68849Y7185D01*
X70115Y8451D01*
X70800Y10105D01*
Y11895D01*
X70115Y13549D01*
X68849Y14815D01*
X67195Y15500D01*
D02*
G37*
G36*
X9595D02*
X7805D01*
X6151Y14815D01*
X4885Y13549D01*
X4200Y11895D01*
Y10105D01*
X4885Y8451D01*
X6151Y7185D01*
X7805Y6500D01*
X9595D01*
X11249Y7185D01*
X12515Y8451D01*
X13200Y10105D01*
Y11895D01*
X12515Y13549D01*
X11249Y14815D01*
X9595Y15500D01*
D02*
G37*
%LPD*%
D15*
X118051Y49459D02*
X119995Y51404D01*
X155000Y79107D02*
Y82300D01*
X166949Y62541D02*
X172180D01*
X166949Y49459D02*
X176819D01*
X112500Y63500D02*
X113230D01*
X127780Y23456D02*
X141240D01*
X244373Y30815D02*
X246688Y28500D01*
X164464Y30500D02*
X194778D01*
X154167Y40797D02*
X164464Y30500D01*
X199093Y34815D02*
X251185D01*
X260000Y26000D01*
X124558Y26678D02*
Y34522D01*
X156926Y29097D02*
X157500Y28523D01*
X130058Y28956D02*
X130632Y29530D01*
Y33390D01*
X134368Y37126D02*
Y37262D01*
X130632Y33390D02*
X134368Y37126D01*
X169426Y36574D02*
X170000Y36000D01*
X150632Y37262D02*
X156926Y30968D01*
X167607Y41500D02*
X177000D01*
X161238Y47868D02*
X167607Y41500D01*
X157703Y44333D02*
X165462Y36574D01*
X156926Y29097D02*
Y30968D01*
X195902Y23023D02*
X203694Y30815D01*
X141240Y23456D02*
X141284Y23500D01*
X124558Y26678D02*
X127780Y23456D01*
X246688Y28500D02*
X247500D01*
X155222Y23023D02*
X195902D01*
X124558Y34522D02*
X130833Y40797D01*
X203694Y30815D02*
X244373D01*
X165462Y36574D02*
X169426D01*
X177000Y41500D02*
X177500Y41000D01*
X194778Y30500D02*
X199093Y34815D01*
X176819Y49459D02*
X187778Y38500D01*
X164774Y51404D02*
X165005D01*
X166949Y49459D01*
X187778Y38500D02*
X195000D01*
X141284Y23500D02*
X154745D01*
X155222Y23023D01*
X165000Y96000D02*
X178000Y83000D01*
Y68361D02*
Y83000D01*
X164774Y60596D02*
X165005D01*
X172180Y62541D02*
X178000Y68361D01*
X165005Y60596D02*
X166949Y62541D01*
X164426Y74391D02*
Y77926D01*
X157703Y67667D02*
X164426Y74391D01*
Y77926D02*
X165000Y78500D01*
X157500Y87688D02*
Y88500D01*
Y87688D02*
X159000Y86188D01*
X136300Y101000D02*
X155000Y82300D01*
X159000Y76171D02*
Y86188D01*
X150632Y74738D02*
Y74738D01*
X155000Y79107D01*
X154167Y71338D02*
X159000Y76171D01*
X154167Y71203D02*
Y71338D01*
X115000Y83500D02*
X120500Y89000D01*
X136370D02*
X147096Y78274D01*
X120500Y89000D02*
X136370D01*
X192639Y63639D02*
Y70500D01*
X206500Y66000D02*
X211000Y70500D01*
X203500Y66000D02*
X206500D01*
X133000Y83042D02*
X137768Y78274D01*
X222500Y70500D02*
X225500Y73500D01*
X235000D01*
X192500Y63500D02*
X192639Y63639D01*
X198672Y70828D02*
X203500Y66000D01*
X167172Y70065D02*
X171926D01*
X192967Y70828D02*
X198672D01*
X142500Y45393D02*
Y56000D01*
X134368Y37262D02*
X142500Y45393D01*
X110182Y78000D02*
X130971D01*
X108334Y76152D02*
X110182Y78000D01*
X106919Y76152D02*
X108334D01*
X106035Y77035D02*
X106919Y76152D01*
X134233Y74738D02*
X134368D01*
X130971Y78000D02*
X134233Y74738D01*
X99848Y59464D02*
Y69081D01*
X98964Y69964D02*
X99848Y69081D01*
X102500Y56000D02*
Y56812D01*
X99848Y59464D02*
X102500Y56812D01*
X121721Y66172D02*
X123762Y64132D01*
X120661Y66172D02*
X121721D01*
X120042Y66791D02*
X120661Y66172D01*
X116521Y66791D02*
X120042D01*
X113230Y63500D02*
X116521Y66791D01*
X115315Y56000D02*
X119911Y60596D01*
X115000Y56000D02*
X115315D01*
X119911Y60596D02*
X120226D01*
X115000Y72500D02*
X122329D01*
X161238Y64132D02*
X167172Y70065D01*
X127958Y83042D02*
X133000D01*
X122329Y72500D02*
X127162Y67667D01*
X211000Y70500D02*
X222500D01*
X127162Y67667D02*
X127297D01*
X127500Y83500D02*
X127958Y83042D01*
X192639Y70500D02*
X192967Y70828D01*
X137768Y78274D02*
X137904D01*
X171926Y70065D02*
X172500Y70639D01*
X107500Y38500D02*
X114393D01*
X123762Y47868D01*
X119995Y51404D02*
X120226D01*
X70959Y49459D02*
X118051D01*
X37500Y16000D02*
X70959Y49459D01*
D16*
X302500Y26000D02*
D03*
Y38700D02*
D03*
Y64100D02*
D03*
Y76800D02*
D03*
Y89500D02*
D03*
Y51400D02*
D03*
X372500Y87000D02*
D03*
X-15000Y25000D02*
D03*
D17*
X206300Y11000D02*
D03*
X235049Y19815D02*
D03*
X220456Y25315D02*
D03*
X90000Y95000D02*
D03*
X157500Y28523D02*
D03*
X130058Y28956D02*
D03*
X170000Y36000D02*
D03*
X177500Y41000D02*
D03*
X195000Y38500D02*
D03*
X165000Y78500D02*
D03*
X115000Y83500D02*
D03*
X150000Y18000D02*
D03*
X342379Y103379D02*
D03*
X339879Y8379D02*
D03*
X10716Y30203D02*
D03*
X27379Y83379D02*
D03*
X47379Y75879D02*
D03*
X94879Y33379D02*
D03*
X192639Y70500D02*
D03*
X260000Y26000D02*
D03*
X262500Y5500D02*
D03*
X192500D02*
D03*
X235000Y73500D02*
D03*
Y43500D02*
D03*
X207500Y41000D02*
D03*
X192500Y46000D02*
D03*
X172500Y70639D02*
D03*
X102500Y56000D02*
D03*
X112500Y63500D02*
D03*
X115000Y56000D02*
D03*
Y72500D02*
D03*
X127500Y83500D02*
D03*
X327500Y18500D02*
D03*
X247500Y28500D02*
D03*
X157500Y88500D02*
D03*
X107500Y38500D02*
D03*
X37500Y16000D02*
D03*
X8700Y11000D02*
D03*
X22500Y5500D02*
D03*
X53292Y5207D02*
D03*
X8700Y101000D02*
D03*
X22500Y106500D02*
D03*
X277500Y106000D02*
D03*
X136300Y101000D02*
D03*
X66300D02*
D03*
X207500Y101500D02*
D03*
X262500Y106500D02*
D03*
X192500D02*
D03*
X122500D02*
D03*
X52500Y106000D02*
D03*
X165000Y96000D02*
D03*
X235000D02*
D03*
X220000Y88500D02*
D03*
X80000D02*
D03*
Y23500D02*
D03*
X165000Y16000D02*
D03*
X92500D02*
D03*
X66300Y11000D02*
D03*
X136300D02*
D03*
X122500Y5500D02*
D03*
X277500Y6000D02*
D03*
D18*
X192500Y63500D02*
D03*
Y53500D02*
D03*
D19*
X205000Y66000D02*
D03*
Y51000D02*
D03*
D20*
X222500Y70500D02*
D03*
Y46500D02*
D03*
D21*
X98964Y69964D02*
D03*
X106035Y77035D02*
D03*
D22*
X120226Y60596D02*
D03*
X123762Y64132D02*
D03*
X127297Y67667D02*
D03*
X130833Y71203D02*
D03*
X134368Y74738D02*
D03*
X137904Y78274D02*
D03*
X164774Y51404D02*
D03*
X161238Y47868D02*
D03*
X157703Y44333D02*
D03*
X154167Y40797D02*
D03*
X150632Y37262D02*
D03*
X147096Y33726D02*
D03*
D23*
Y78274D02*
D03*
X150632Y74738D02*
D03*
X154167Y71203D02*
D03*
X157703Y67667D02*
D03*
X161238Y64132D02*
D03*
X164774Y60596D02*
D03*
X137904Y33726D02*
D03*
X134368Y37262D02*
D03*
X130833Y40797D02*
D03*
X127297Y44333D02*
D03*
X123762Y47868D02*
D03*
X120226Y51404D02*
D03*
D24*
X142500Y56000D02*
D03*
M02*
