M48
;Layer_Color=9474304
;FILE_FORMAT=4:4
METRIC,LZ
;TYPE=PLATED
T01F00S00C0.3000
T02F00S00C0.5000
T03F00S00C1.5000
;TYPE=NON_PLATED
T04F00S00C0.6500
T05F00S00C1.6000
T06F00S00C1.8000
%
T01
X0059678Y000273
X0062178
X0064678
X0067178
X0069678
X0072178
X0074678
X0077178
X0079678
X0057178
X0054678
X0052178
X0049678
X0047178
X0044678
X0042178
X0039678
X0037178
X0034678
X0032178
X0029678
X0027178
X0024678
X0022178
X0019678
X0020928Y000523
X0019678Y001273
X002995Y00141225
X003495
X003865Y001455
X004185Y001445
X0049678Y001273
Y000773
X0052178
X0054678
X0057178
X0055928Y000523
X0053428
X0050928
X0048428
X0045928
X003425Y00098
X003325Y000925
X002925
X002825
X0057178Y001273
X0017178
X0014678
X0012178
X0013428Y001023
X0015928
X0018428
X0017178Y000773
X0014678
X0015928Y000523
X0018428
X0017178Y000273
X0014678
X0012178
X0009678
X0007178
X0004678
X0002178
X0003428Y000523
X0005928
X0008428
X0010928
X0013428
X0009678Y000773
X0007178
X0008428Y001023
X0010928
X0005928
X0003428
X0002178Y001273
X0007178
X0002178Y000773
X0003428Y001523
X0005928
X0008428
X0010928
X0013428
X0015928
X00189Y00149
Y00192
X0018428Y002023
X0015928
X0013428
X0014678Y002273
X0017178
X0018428Y002523
X0017178Y002773
X00163Y00302
Y00321
X0017178Y003273
X00185Y00323
X0018428Y003023
X00182886Y003545
X00165Y00353
X00166Y00344
X00177Y00377
X00164Y00389
X00154Y00383
X00145Y00389
Y00375
X0009678Y003773
X0007178
X0004678
X0002178
X0003428Y004023
X0005928
X0002178Y004273
X0003428Y004523
X0003678Y00497301
X0001678
Y00537301
X0003678
X0009678
X0011678
X0013678
X0015678
X0017678
Y00517301
Y00497301
X0015678
Y00517301
X0013678
Y00497301
X0011678
Y00517301
X0009678
Y00497301
X0007678
X00108Y00441
X00134Y00442
X00131Y0043
X00168Y00433
X00174213Y00423787
X00176Y00402
X00182Y00444
X0018428Y004523
X0010928Y003523
X0012178Y003273
X0009678
X0007178
X0005928Y003023
X0003428
X0004678Y002773
X0002178
X0003428Y002523
X0002178Y002273
X0003428Y002023
X0002178Y001773
X0007178
X0009678
X0008428Y002023
X0009678Y002273
X0012178
X0007178
X0008428Y002523
X0014678Y001773
X0017178
X0002178Y003273
X0003428Y003523
X0022Y00371
X00243303Y00395697
X0024Y00421
X00233Y00415
X00255Y00423
Y0043
X00216Y00443
X00193Y00449
X0019678Y00497301
Y00517301
Y00537301
X0022178Y005273
X0024678Y004773
X00342Y00496
X0035928Y005023
X0038428
X0037178Y005273
X0042178
X0043428Y005023
X0045928
X0048428
X0050928
X0052178Y004773
X0049678
X0047178
X0046Y00471
X00445Y0046
X00448Y00441
X00451Y00431
X00443
X00425913Y00448855
X0042178Y004773
X0037178
X00384Y00462
X0038428Y003523
X0040928
X00405Y00367
X00433Y003695
X00443
X00474Y00353
X0048428Y003523
X0050928
X0053428
X0055928
X0057178Y003773
X0054678
X0052178
X00507Y00395
X0048428Y004023
X00486Y00429
X00485Y00438
Y00447
X005Y00446
X00509Y00462
X00545Y00437
X00569Y00431
X00571Y00456
X0058428Y004523
X0057178Y004773
X0058428Y005023
X0055928
X0057178Y005273
X0058Y00538
X00541Y00537
X0055928Y004023
X0058428
X0057178Y003273
Y002773
X0055928Y002523
X0057178Y002273
X0054678
X0052178
X0050928Y002023
X0049678Y001773
X0047178
X0044678
X0042178
X004185Y001875
X003865Y001885
X00385Y00202
X0037178Y001773
X0038428Y001523
X0035928
X00337Y00153395
X0033428Y002023
Y002523
X0035928
Y003023
X0038428
X00405Y00316
X00413Y00334
X0042Y00303
X00435Y00286
X00438Y00279
X00463Y00281
X00462Y00291
X0046Y00317
X0048428Y003023
X0049678Y003273
X0052178
X0053428Y003023
X0048428Y002523
X00462Y0025
X0047178Y002273
X00486Y00224
X0044678Y002273
X0044Y00202
X0042Y00245
X0043Y00257
X0033428Y003023
X0034678Y003273
X0035928Y003523
X0033428
X002825Y001525
X0023428Y001523
X00221Y00148
X0022178Y001773
X00221Y00191
X0020928Y002023
X0019678Y002273
X0055928Y002023
X0057178Y001773
X0053428Y001523
X0060928Y004023
X0063428
X0065928
X0068428
X0070928
X0073428
X0075928
X0078428
X0080928
X0079678Y004273
X0077178
X0074678
X0072178
X0069678
X0070928Y004523
X0068428
X0065928
X0063428
X0060928
X0062178Y004773
X0064678
X0067178
X0069678
X0072178
X0070928Y005023
X0068428
X0065928
X0063428
X0060928
X0062178Y005273
X0064678
X0067178
X0072178
X0059678
X00591Y00535
X0059678Y004773
Y004273
X00596Y00592
X00609Y00587
X0060928Y006023
X00607Y00618
X0062178Y006273
X0064678
X0067178
X0069678
X0072178
X0070928Y006523
X0068428
X0065928
X0063428
X0060928
X0062178Y006773
X0064678
X0067178
X0069678
X0072178
X0070928Y007023
X0068428
X0065928
X0063428
X0060928
X0062178Y007273
X0064678
X0067178
X0069678
X0072178
X0059678
Y006773
X0063428Y006023
X0065928
X0068428
X0070928
X0072178Y005773
X0070928Y005523
X00577575Y00588036
X00585Y00596
X00561Y00616
X00532Y00617
X00515Y00631
X0049678Y006273
X0047178
X00445Y0062
X0045928Y006523
X0048428
X0050928
X0052178Y006773
X0054678
X0057178
X0058428Y007023
X0055928
X0053428
X0050928
X0048428
X0045928
X0043428
X0040928
X0038428
X0035928
X0033428
X0030928
X0028428
X0025928
X0023428
X0020928
X0022178Y007273
X0024678
X0027178
X0029678
X0032178
X0034678
X0037178
X0039678
X0042178
X0044678
X0047178
X0049678
X0052178
X0054678
X0057178
X0049678Y006773
X0047178
X0044678
X0042178
X0039678
X0037178
X0034678
X0032178
X0029678
X0027178
X0024678
X0022178
X0019678
X0019678Y00637301
Y00617301
X0022178Y006273
X00224Y00593
X0023428Y006023
X00235Y00569
Y00561
X0023428Y005523
Y006523
X0025928
X00268Y00639
X00301
X00335Y00648
X0035928Y006523
X0034678Y006273
X0030928Y006023
X0038428Y005523
X0040928
X0043428
X0045928
X0048428
X0050928
X0052178Y005773
X0049678
X0048428Y006023
X00457Y0058
X0019678Y007273
X0017178
X0014678
X0012178
X0009678
X0007178
X0004678
X0002178
X0003428Y007023
X0005928
X0008428
X0010928
X0013428
X0015928
X0018428
X0017178Y006773
X0014678
X0012178
X0009678
X0007178
X0004678
X0002178
X0001678Y00637301
X0003678
X0007678
X0009678
X0011678
X0013678
X0015678
X0017678
Y00617301
Y00597301
X0015678
Y00617301
X0013678
X0011678
X0009678
Y00597301
X00105Y00596
X00107Y00586
X00103Y00578
X00114Y00592
X00144Y00588
X0015678Y00577301
X00161Y00569
X0015678Y00557301
X0015Y00555
X0017678Y00557301
X00173Y00564
X00106979Y00544
X0005678Y00557301
Y00577301
X0003678
Y00597301
X0001678
Y00577301
Y00557301
X0003678
T02
X00613Y00421
X006257
X006384
X006511
X006638
X006765
X00691Y005275
Y005402
Y005529
Y005656
Y005783
Y00591
T03
X00553Y00115
Y00315
T04
X0006425Y005401
Y005979
T05
X0005Y00135
T06
X00095Y00135
M30
