M48
;Layer_Color=9474304
;FILE_FORMAT=4:4
METRIC,LZ
;TYPE=PLATED
T01F00S00C0.3000
T02F00S00C0.5000
;TYPE=NON_PLATED
T04F00S00C2.0500
T05F00S00C2.1000
%
T01
X00015Y0005
X000625
X001125Y000825
X00145Y000575
X0017Y000725
X002Y000825
X0017Y000175
X00175Y001025
X002025Y0012
X00225Y00109582
X001475Y0013
X001175Y001075
X001125Y0015
X000825Y00185
X00065Y001275
X001675Y001825
T02
X00186035Y00071065
Y00083764
Y00096465
Y00109164
Y00121865
Y00134565
T04
X000875Y001
T05
X-00015Y00025
X002
Y00175
M30
