M48
;Layer_Color=9474304
;FILE_FORMAT=4:4
METRIC,LZ
;TYPE=PLATED
T01F00S00C0.3000
T02F00S00C0.5000
;TYPE=NON_PLATED
T03F00S00C2.1000
%
T01
X000087Y00011
X000225Y000055
X000375Y00016
X00053292Y00005207
X000663Y00011
X0008Y000235
X000925Y00016
X00094879Y00033379
X001075Y000385
X001025Y00056
X00115Y00056
X001125Y000635
X00115Y000725
Y000835
X001275
X001575Y000885
X00165Y000785
X001725Y00070639
X00192639Y000705
X001925Y00046
X00195Y000385
X002075Y00041
X00220456Y00025315
X00235049Y00019815
X002475Y000285
X0026Y00026
X002625Y000055
X002775Y00006
X003275Y000185
X00339879Y00008379
X002063Y00011
X001925Y000055
X00165Y00016
X0015Y00018
X001575Y00028523
X0017Y00036
X001775Y00041
X00130058Y00028956
X001363Y00011
X001225Y000055
X0008Y000885
X00047379Y00075879
X00027379Y00083379
X00010716Y00030203
X00235Y000435
Y000735
X0022Y000885
X00235Y00096
X002075Y001015
X001925Y001065
X00165Y00096
X001363Y00101
X001225Y001065
X0009Y00095
X000663Y00101
X000525Y00106
X000225Y001065
X000087Y00101
X002625Y001065
X002775Y00106
X00342379Y00103379
T02
X003025Y00026
Y000387
Y000514
Y000641
Y000768
Y000895
T03
X-00015Y00025
X003725Y00087
M30
